{"asset":{"generator":"Khronos glTF Spline I/O v0.0.1","version":"2.0"},"scenes":[{"nodes":[0]}],"nodes":[{"name":"","children":[1,2],"matrix":[0.01,0,0,0,0,0.01,0,0,0,0,0.01,0,0,0,0,1]},{"name":"","camera":0,"translation":[-12,258.00000000000006,1000],"rotation":[-2.8421709430404e-17,0,0,1]},{"name":"Group","matrix":[0.25,0,0,0,0,0.25,0,0,0,0,0.25,0,0,0,0,1],"children":[3]},{"name":"robot","matrix":[1,0,0,0,0,1,0,0,0,0,1,0,-1.97265625,282.70703125,0,1],"children":[4,5,12,13,16,19]},{"name":"head","matrix":[1,0,0,0,0,1,0,0,0,0,1,0,0.6551706769884049,-78.4385002139781,-40.30654221735932,1],"mesh":0},{"name":"eyes","matrix":[1,0,0,0,0,1,0,0,0,0,1,0,1.4565675519885701,-20.35950562551632,146.03512482465027,1],"children":[6,9]},{"name":"right","matrix":[1.13,0,0,0,0,1.13,0,0,0,0,1.13,0,-94.88997812500007,-1.4210854715202004e-14,-1.1368683772161603e-13,1],"children":[7,8]},{"name":"Cylinder","matrix":[1.1726218945677134,0,0,0,0,2.603743653057304e-16,1.172621894567717,0,0,-1.172621894567717,2.603743653057304e-16,0,-1.4210854715202004e-14,1.4210854715202004e-14,1.1368683772161603e-13,1],"mesh":1},{"name":"Ellipse","matrix":[1,0,0,0,0,1,0,0,0,0,1,0,0.29845624999995835,1.7015437500000417,22.134564207990707,1],"mesh":2},{"name":"left","matrix":[1.13,0,0,0,0,1.1341991957171937,0,0,0,0,1.1341991957171937,0,96.51899062500019,-1.4210854715202004e-14,-1.1368683772161603e-13,1],"children":[10,11]},{"name":"Cylinder","matrix":[1.1726218945677134,0,0,0,0,2.603743653057304e-16,1.172621894567717,0,0,-1.172621894567717,2.603743653057304e-16,0,-1.4210854715202004e-14,1.4210854715202004e-14,1.1368683772161603e-13,1],"mesh":3},{"name":"Ellipse","matrix":[1,0,0,0,0,1,0,0,0,0,1,0,0.29845624999995835,1.7015437500000417,22.134564207990707,1],"mesh":4},{"name":"nose","matrix":[0.782655391122655,0,-0.7826553911226553,0,0,1.1068418687900783,0,0,0.7826553911226553,0,0.782655391122655,0,1.3521598185975563,-60.206724375516316,151.88789528264073,1],"mesh":5},{"name":"antenna","matrix":[1,0,0,0,0,1,0,0,0,0,1,0,0.5877550179025093,198.139687133613,-47.07264469456487,1],"children":[14,15]},{"name":"Cylinder","matrix":[0.686567164179104,0,0,0,0,1.2037336015137279,0,0,0,0,0.6865671641791044,0,0.06741565908589564,-40.9991927591293,-0.37610289779456707,1],"mesh":6},{"name":"Sphere","matrix":[0.9015586146080652,0,0,0,0,1.0009311319870318e-15,-0.901558614608065,0,0,0.901558614608065,1.0009311319870318e-15,0,-1.7763568394002505e-15,48.83490988143444,0,1],"mesh":7},{"name":"ears","matrix":[1,0,0,0,0,1,0,0,0,0,1,0,-186.6170470456837,-79.3595056255163,-42.04507196736387,1],"children":[17,18]},{"name":"right","matrix":[2.30339375956372e-10,-2.3033916898849822e-10,-1.2428005855160664,0,1.2428005855160607,1.727566361406614e-10,2.3033916898849716e-10,0,1.727564981620792e-10,-1.2428005855160629,2.3033937595637132e-10,0,5.684341886080802e-14,0,0,1],"mesh":8},{"name":"left","matrix":[5.903105670840259e-9,-5.903105670840259e-9,-1.242800582679683,0,1.2428005826796773,4.427332012701817e-9,5.903105670840231e-9,0,4.427332012701825e-9,-1.2428005826796795,5.903105670840241e-9,0,373.23409408917007,-4.779288076406374e-12,-4.774847184307873e-12,1],"mesh":9},{"name":"mouth","matrix":[1,0,0,0,0,1,0,0,0,0,1,0,1.155170676988405,-193.06033665044708,171.03150716602744,1],"children":[20,21,22]},{"name":"white","matrix":[1,0,0,0,0,1,0,0,0,0,1,0,0.5,-2.2991689750692217,8.773749552015715,1],"mesh":10},{"name":"mouth","matrix":[1,1.2246467991473532e-16,0,0,1.2246467991473532e-16,-1,0,0,0,0,0.16055519163781953,0,0,0,1.8041496143720224,1],"mesh":11},{"name":"teeth","matrix":[1,0,0,0,0,1,0,0,0,0,1,0,-0.6301396413727218,-0.2991689750692217,-1.2793911823351891,1],"children":[23,24,25,26]},{"name":"tooth_1","matrix":[1,0,0,0,0,1,0,0,0,0,1,0,-68.8531981592911,0,6.5,1],"mesh":12},{"name":"tooth_3","matrix":[1,0,0,0,0,1,0,0,0,0,1,0,-23.298109589859315,0,4.5,1],"mesh":13},{"name":"tooth_5","matrix":[1,0,0,0,0,1,0,0,0,0,1,0,24.553878964089318,0,0,1],"mesh":14},{"name":"tooth_7","matrix":[1,0,0,0,0,1,0,0,0,0,1,0,69.64762679620759,0,0,1],"mesh":15}],"cameras":[{"type":"orthographic","orthographic":{"xmag":1512,"ymag":866,"zfar":100000,"znear":-100000}}],"meshes":[{"primitives":[{"attributes":{"POSITION":1,"NORMAL":2,"TEXCOORD_0":3},"indices":0,"material":0}]},{"primitives":[{"attributes":{"POSITION":5,"NORMAL":6,"TEXCOORD_0":7},"indices":4,"material":1}]},{"primitives":[{"attributes":{"POSITION":9,"NORMAL":10,"TEXCOORD_0":11},"indices":8,"material":2}]},{"primitives":[{"attributes":{"POSITION":13,"NORMAL":14,"TEXCOORD_0":15},"indices":12,"material":1}]},{"primitives":[{"attributes":{"POSITION":17,"NORMAL":18,"TEXCOORD_0":19},"indices":16,"material":3}]},{"primitives":[{"attributes":{"POSITION":21,"NORMAL":22,"TEXCOORD_0":23},"indices":20,"material":4}]},{"primitives":[{"attributes":{"POSITION":25,"NORMAL":26,"TEXCOORD_0":27},"indices":24,"material":5}]},{"primitives":[{"attributes":{"POSITION":29,"NORMAL":30,"TEXCOORD_0":31},"indices":28,"material":6}]},{"primitives":[{"attributes":{"POSITION":33,"NORMAL":34,"TEXCOORD_0":35},"indices":32,"material":4}]},{"primitives":[{"attributes":{"POSITION":37,"NORMAL":38,"TEXCOORD_0":39},"indices":36,"material":4}]},{"primitives":[{"attributes":{"POSITION":41,"NORMAL":42,"TEXCOORD_0":43},"indices":40,"material":3}]},{"primitives":[{"attributes":{"POSITION":45,"NORMAL":46},"indices":44,"material":7}]},{"primitives":[{"attributes":{"POSITION":48,"NORMAL":49,"TEXCOORD_0":50},"indices":47,"material":7}]},{"primitives":[{"attributes":{"POSITION":52,"NORMAL":53,"TEXCOORD_0":54},"indices":51,"material":7}]},{"primitives":[{"attributes":{"POSITION":56,"NORMAL":57,"TEXCOORD_0":58},"indices":55,"material":7}]},{"primitives":[{"attributes":{"POSITION":60,"NORMAL":61,"TEXCOORD_0":62},"indices":59,"material":7}]}],"materials":[{"pbrMetallicRoughness":{"baseColorFactor":[0.47843137254901963,0.5647058823529412,0.6470588235294118,1],"metallicFactor":0,"roughnessFactor":0.97},"doubleSided":false},{"pbrMetallicRoughness":{"baseColorFactor":[0.27450980392156865,0.36470588235294116,0.4470588235294118,1],"metallicFactor":0,"roughnessFactor":0.97},"doubleSided":false},{"pbrMetallicRoughness":{"baseColorFactor":[1,1,1,1],"metallicFactor":0,"roughnessFactor":0.97},"doubleSided":false},{"pbrMetallicRoughness":{"baseColorFactor":[1,1,1,1],"metallicFactor":0,"roughnessFactor":0.97},"doubleSided":false},{"pbrMetallicRoughness":{"baseColorFactor":[0.9921568627450981,0.3568627450980392,0.3137254901960784,1],"metallicFactor":0,"roughnessFactor":0.97},"doubleSided":false},{"pbrMetallicRoughness":{"baseColorFactor":[0.6980392156862745,0.3333333333333333,1,1],"metallicFactor":0,"roughnessFactor":0.97},"doubleSided":false},{"pbrMetallicRoughness":{"baseColorFactor":[1,0.6980392156862745,0.12941176470588237,1],"metallicFactor":0,"roughnessFactor":0.97},"doubleSided":false},{"pbrMetallicRoughness":{"baseColorFactor":[0.11764705882352941,0.11764705882352941,0.11764705882352941,1],"metallicFactor":0,"roughnessFactor":0.97},"doubleSided":false}],"buffers":[{"uri":"data:application/octet-stream;base64,","byteLength":23496},{"uri":"data:application/octet-stream;base64,","byteLength":113920},{"uri":"data:application/octet-stream;base64,","byteLength":5608},{"uri":"data:application/octet-stream;base64,","byteLength":113920},{"uri":"data:application/octet-stream;base64,","byteLength":5608},{"uri":"data:application/octet-stream;base64,","byteLength":19408},{"uri":"data:application/octet-stream;base64,","byteLength":13952},{"uri":"data:application/octet-stream;base64,","byteLength":183584},{"uri":"data:application/octet-stream;base64,","byteLength":67200},{"uri":"data:application/octet-stream;base64,","byteLength":67200},{"uri":"data:application/octet-stream;base64,","byteLength":416},{"uri":"data:application/octet-stream;base64,","byteLength":337920},{"uri":"data:application/octet-stream;base64,","byteLength":23496},{"uri":"data:application/octet-stream;base64,","byteLength":23496},{"uri":"data:application/octet-stream;base64,","byteLength":23496},{"uri":"data:application/octet-stream;base64,","byteLength":23496}],"bufferViews":[{"buffer":0,"byteOffset":0,"byteLength":4296,"target":34963},{"buffer":0,"byteOffset":4296,"byteLength":7200,"target":34962},{"buffer":0,"byteOffset":11496,"byteLength":7200,"target":34962},{"buffer":0,"byteOffset":18696,"byteLength":4800,"target":34962},{"buffer":1,"byteOffset":0,"byteLength":30720,"target":34963},{"buffer":1,"byteOffset":30720,"byteLength":31200,"target":34962},{"buffer":1,"byteOffset":61920,"byteLength":31200,"target":34962},{"buffer":1,"byteOffset":93120,"byteLength":20800,"target":34962},{"buffer":2,"byteOffset":0,"byteLength":1512,"target":34963},{"buffer":2,"byteOffset":1512,"byteLength":1536,"target":34962},{"buffer":2,"byteOffset":3048,"byteLength":1536,"target":34962},{"buffer":2,"byteOffset":4584,"byteLength":1024,"target":34962},{"buffer":3,"byteOffset":0,"byteLength":30720,"target":34963},{"buffer":3,"byteOffset":30720,"byteLength":31200,"target":34962},{"buffer":3,"byteOffset":61920,"byteLength":31200,"target":34962},{"buffer":3,"byteOffset":93120,"byteLength":20800,"target":34962},{"buffer":4,"byteOffset":0,"byteLength":1512,"target":34963},{"buffer":4,"byteOffset":1512,"byteLength":1536,"target":34962},{"buffer":4,"byteOffset":3048,"byteLength":1536,"target":34962},{"buffer":4,"byteOffset":4584,"byteLength":1024,"target":34962},{"buffer":5,"byteOffset":0,"byteLength":3888,"target":34963},{"buffer":5,"byteOffset":3888,"byteLength":5820,"target":34962},{"buffer":5,"byteOffset":9708,"byteLength":5820,"target":34962},{"buffer":5,"byteOffset":15528,"byteLength":3880,"target":34962},{"buffer":6,"byteOffset":0,"byteLength":1536,"target":34963},{"buffer":6,"byteOffset":1536,"byteLength":4656,"target":34962},{"buffer":6,"byteOffset":6192,"byteLength":4656,"target":34962},{"buffer":6,"byteOffset":10848,"byteLength":3104,"target":34962},{"buffer":7,"byteOffset":0,"byteLength":48384,"target":34963},{"buffer":7,"byteOffset":48384,"byteLength":50700,"target":34962},{"buffer":7,"byteOffset":99084,"byteLength":50700,"target":34962},{"buffer":7,"byteOffset":149784,"byteLength":33800,"target":34962},{"buffer":8,"byteOffset":0,"byteLength":17280,"target":34963},{"buffer":8,"byteOffset":17280,"byteLength":18720,"target":34962},{"buffer":8,"byteOffset":36000,"byteLength":18720,"target":34962},{"buffer":8,"byteOffset":54720,"byteLength":12480,"target":34962},{"buffer":9,"byteOffset":0,"byteLength":17280,"target":34963},{"buffer":9,"byteOffset":17280,"byteLength":18720,"target":34962},{"buffer":9,"byteOffset":36000,"byteLength":18720,"target":34962},{"buffer":9,"byteOffset":54720,"byteLength":12480,"target":34962},{"buffer":10,"byteOffset":0,"byteLength":96,"target":34963},{"buffer":10,"byteOffset":96,"byteLength":120,"target":34962},{"buffer":10,"byteOffset":216,"byteLength":120,"target":34962},{"buffer":10,"byteOffset":336,"byteLength":80,"target":34962},{"buffer":11,"byteOffset":0,"byteLength":67584,"target":34963},{"buffer":11,"byteOffset":67584,"byteLength":135168,"target":34962},{"buffer":11,"byteOffset":202752,"byteLength":135168,"target":34962},{"buffer":12,"byteOffset":0,"byteLength":4296,"target":34963},{"buffer":12,"byteOffset":4296,"byteLength":7200,"target":34962},{"buffer":12,"byteOffset":11496,"byteLength":7200,"target":34962},{"buffer":12,"byteOffset":18696,"byteLength":4800,"target":34962},{"buffer":13,"byteOffset":0,"byteLength":4296,"target":34963},{"buffer":13,"byteOffset":4296,"byteLength":7200,"target":34962},{"buffer":13,"byteOffset":11496,"byteLength":7200,"target":34962},{"buffer":13,"byteOffset":18696,"byteLength":4800,"target":34962},{"buffer":14,"byteOffset":0,"byteLength":4296,"target":34963},{"buffer":14,"byteOffset":4296,"byteLength":7200,"target":34962},{"buffer":14,"byteOffset":11496,"byteLength":7200,"target":34962},{"buffer":14,"byteOffset":18696,"byteLength":4800,"target":34962},{"buffer":15,"byteOffset":0,"byteLength":4296,"target":34963},{"buffer":15,"byteOffset":4296,"byteLength":7200,"target":34962},{"buffer":15,"byteOffset":11496,"byteLength":7200,"target":34962},{"buffer":15,"byteOffset":18696,"byteLength":4800,"target":34962}],"accessors":[{"bufferView":0,"byteOffset":0,"componentType":5123,"count":2148,"type":"SCALAR","min":[0],"max":[599]},{"bufferView":1,"byteOffset":0,"componentType":5126,"count":600,"type":"VEC3","min":[-205.5,-205.5,-205.5],"max":[205.5,205.5,205.5]},{"bufferView":2,"byteOffset":0,"componentType":5126,"count":600,"type":"VEC3","min":[-1,-1,-1],"max":[1,1,1]},{"bufferView":3,"byteOffset":0,"componentType":5126,"count":600,"type":"VEC2","min":[0,0],"max":[1,1]},{"bufferView":4,"byteOffset":0,"componentType":5123,"count":15360,"type":"SCALAR","min":[0],"max":[2599]},{"bufferView":5,"byteOffset":0,"componentType":5126,"count":2600,"type":"VEC3","min":[-47.5,-47.5,-47.5],"max":[47.5,47.5,47.5]},{"bufferView":6,"byteOffset":0,"componentType":5126,"count":2600,"type":"VEC3","min":[-1,-1,-1],"max":[1,1,1]},{"bufferView":7,"byteOffset":0,"componentType":5126,"count":2600,"type":"VEC2","min":[0,0],"max":[1,1]},{"bufferView":8,"byteOffset":0,"componentType":5125,"count":378,"type":"SCALAR","min":[0],"max":[127]},{"bufferView":9,"byteOffset":0,"componentType":5126,"count":128,"type":"VEC3","min":[-38.5,-38.5,0],"max":[38.5,38.5,0]},{"bufferView":10,"byteOffset":0,"componentType":5126,"count":128,"type":"VEC3","min":[0,0,1],"max":[0,0,1]},{"bufferView":11,"byteOffset":0,"componentType":5126,"count":128,"type":"VEC2","min":[0,0],"max":[1,1]},{"bufferView":12,"byteOffset":0,"componentType":5123,"count":15360,"type":"SCALAR","min":[0],"max":[2599]},{"bufferView":13,"byteOffset":0,"componentType":5126,"count":2600,"type":"VEC3","min":[-47.5,-47.5,-47.5],"max":[47.5,47.5,47.5]},{"bufferView":14,"byteOffset":0,"componentType":5126,"count":2600,"type":"VEC3","min":[-1,-1,-1],"max":[1,1,1]},{"bufferView":15,"byteOffset":0,"componentType":5126,"count":2600,"type":"VEC2","min":[0,0],"max":[1,1]},{"bufferView":16,"byteOffset":0,"componentType":5125,"count":378,"type":"SCALAR","min":[0],"max":[127]},{"bufferView":17,"byteOffset":0,"componentType":5126,"count":128,"type":"VEC3","min":[-38.5,-38.5,0],"max":[38.5,38.5,0]},{"bufferView":18,"byteOffset":0,"componentType":5126,"count":128,"type":"VEC3","min":[0,0,1],"max":[0,0,1]},{"bufferView":19,"byteOffset":0,"componentType":5126,"count":128,"type":"VEC2","min":[0,0],"max":[1,1]},{"bufferView":20,"byteOffset":0,"componentType":5123,"count":1944,"type":"SCALAR","min":[0],"max":[484]},{"bufferView":21,"byteOffset":0,"componentType":5126,"count":485,"type":"VEC3","min":[-39.071922302246094,-60,-39.071922302246094],"max":[39.071922302246094,44,39.071922302246094]},{"bufferView":22,"byteOffset":0,"componentType":5126,"count":485,"type":"VEC3","min":[-0.994903028011322,-1,-0.994903028011322],"max":[0.994903028011322,1,0.994903028011322]},{"bufferView":23,"byteOffset":0,"componentType":5126,"count":485,"type":"VEC2","min":[0,0],"max":[0,0]},{"bufferView":24,"byteOffset":0,"componentType":5123,"count":768,"type":"SCALAR","min":[0],"max":[387]},{"bufferView":25,"byteOffset":0,"componentType":5126,"count":388,"type":"VEC3","min":[-30,-54,-30],"max":[30,54,30]},{"bufferView":26,"byteOffset":0,"componentType":5126,"count":388,"type":"VEC3","min":[-0.9848752021789551,-1,-0.9848752021789551],"max":[0.9848752021789551,1,0.9848752021789551]},{"bufferView":27,"byteOffset":0,"componentType":5126,"count":388,"type":"VEC2","min":[0,0],"max":[1,1]},{"bufferView":28,"byteOffset":0,"componentType":5123,"count":24192,"type":"SCALAR","min":[0],"max":[4224]},{"bufferView":29,"byteOffset":0,"componentType":5126,"count":4225,"type":"VEC3","min":[-41,-41,-41],"max":[41,41,41]},{"bufferView":30,"byteOffset":0,"componentType":5126,"count":4225,"type":"VEC3","min":[-1,-1,-1],"max":[1,1,1]},{"bufferView":31,"byteOffset":0,"componentType":5126,"count":4225,"type":"VEC2","min":[-0.0078125,0],"max":[1.0078125,1]},{"bufferView":32,"byteOffset":0,"componentType":5123,"count":8640,"type":"SCALAR","min":[0],"max":[1558]},{"bufferView":33,"byteOffset":0,"componentType":5126,"count":1560,"type":"VEC3","min":[-66,-53.5,-66],"max":[66,53.5,66]},{"bufferView":34,"byteOffset":0,"componentType":5126,"count":1560,"type":"VEC3","min":[-1,-1,-1],"max":[1,1,1]},{"bufferView":35,"byteOffset":0,"componentType":5126,"count":1560,"type":"VEC2","min":[0,0],"max":[1,1]},{"bufferView":36,"byteOffset":0,"componentType":5123,"count":8640,"type":"SCALAR","min":[0],"max":[1558]},{"bufferView":37,"byteOffset":0,"componentType":5126,"count":1560,"type":"VEC3","min":[-66,-53.5,-66],"max":[66,53.5,66]},{"bufferView":38,"byteOffset":0,"componentType":5126,"count":1560,"type":"VEC3","min":[-1,-1,-1],"max":[1,1,1]},{"bufferView":39,"byteOffset":0,"componentType":5126,"count":1560,"type":"VEC2","min":[0,0],"max":[1,1]},{"bufferView":40,"byteOffset":0,"componentType":5125,"count":24,"type":"SCALAR","min":[0],"max":[9]},{"bufferView":41,"byteOffset":0,"componentType":5126,"count":10,"type":"VEC3","min":[-98.29368591308594,-19.52798080444336,0],"max":[97.76921081542969,22.5,0]},{"bufferView":42,"byteOffset":0,"componentType":5126,"count":10,"type":"VEC3","min":[0,0,1],"max":[0,0,1]},{"bufferView":43,"byteOffset":0,"componentType":5126,"count":10,"type":"VEC2","min":[0,0],"max":[1,1]},{"bufferView":44,"byteOffset":0,"componentType":5125,"count":16896,"type":"SCALAR","min":[0],"max":[11263]},{"bufferView":45,"byteOffset":0,"componentType":5126,"count":11264,"type":"VEC3","min":[-101.38772583007812,-25.5,-99.5],"max":[101.38772583007812,25.5,99.5]},{"bufferView":46,"byteOffset":0,"componentType":5126,"count":11264,"type":"VEC3","min":[-1,-1,-1],"max":[1,1,1]},{"bufferView":47,"byteOffset":0,"componentType":5123,"count":2148,"type":"SCALAR","min":[0],"max":[599]},{"bufferView":48,"byteOffset":0,"componentType":5126,"count":600,"type":"VEC3","min":[-5,-20.5,-10],"max":[5,20.5,10]},{"bufferView":49,"byteOffset":0,"componentType":5126,"count":600,"type":"VEC3","min":[-1,-1,-1],"max":[1,1,1]},{"bufferView":50,"byteOffset":0,"componentType":5126,"count":600,"type":"VEC2","min":[0,0],"max":[1,1]},{"bufferView":51,"byteOffset":0,"componentType":5123,"count":2148,"type":"SCALAR","min":[0],"max":[599]},{"bufferView":52,"byteOffset":0,"componentType":5126,"count":600,"type":"VEC3","min":[-5,-20.5,-12],"max":[5,20.5,12]},{"bufferView":53,"byteOffset":0,"componentType":5126,"count":600,"type":"VEC3","min":[-1,-1,-1],"max":[1,1,1]},{"bufferView":54,"byteOffset":0,"componentType":5126,"count":600,"type":"VEC2","min":[0,0],"max":[1,1]},{"bufferView":55,"byteOffset":0,"componentType":5123,"count":2148,"type":"SCALAR","min":[0],"max":[599]},{"bufferView":56,"byteOffset":0,"componentType":5126,"count":600,"type":"VEC3","min":[-5,-20.5,-16.5],"max":[5,20.5,16.5]},{"bufferView":57,"byteOffset":0,"componentType":5126,"count":600,"type":"VEC3","min":[-1,-1,-1],"max":[1,1,1]},{"bufferView":58,"byteOffset":0,"componentType":5126,"count":600,"type":"VEC2","min":[0,0],"max":[1,1]},{"bufferView":59,"byteOffset":0,"componentType":5123,"count":2148,"type":"SCALAR","min":[0],"max":[599]},{"bufferView":60,"byteOffset":0,"componentType":5126,"count":600,"type":"VEC3","min":[-5,-20.5,-16.5],"max":[5,20.5,16.5]},{"bufferView":61,"byteOffset":0,"componentType":5126,"count":600,"type":"VEC3","min":[-1,-1,-1],"max":[1,1,1]},{"bufferView":62,"byteOffset":0,"componentType":5126,"count":600,"type":"VEC2","min":[0,0],"max":[1,1]}],"extensions":{"KHR_lights_punctual":{"lights":[]}},"extensionsUsed":["KHR_lights_punctual"]}