{"asset":{"generator":"Khronos glTF Spline I/O v0.0.1","version":"2.0"},"scenes":[{"nodes":[0]}],"nodes":[{"name":"","children":[1,2],"matrix":[0.01,0,0,0,0,0.01,0,0,0,0,0.01,0,0,0,0,1]},{"name":"","camera":0,"translation":[3042.519643608128,3194.2937896845197,3375.15399975076],"rotation":[-0.2798481450503868,0.36470519754596964,0.11591688939923592,0.8804762400807975]},{"name":"Text","matrix":[1,0,0,0,0,1,0,0,0,0,1,0,0,0,0,1],"children":[3,4]},{"name":"Shape","matrix":[1,0,0,0,0,1,0,0,0,0,1,0,-314.9068756103516,126.39110354543254,9.271699905395508,1],"mesh":0},{"name":"Sphere","matrix":[1,0,0,0,0,1,0,0,0,0,1,0,44.092506005438025,175.464848506969,6.122666181327482,1],"mesh":1}],"cameras":[{"type":"perspective","perspective":{"aspectRatio":1.745958429561201,"yfov":0.7853981633974483,"znear":70,"zfar":100000}}],"meshes":[{"primitives":[{"attributes":{"POSITION":1,"NORMAL":2,"TEXCOORD_0":3},"indices":0,"material":0}]},{"primitives":[{"attributes":{"POSITION":5,"NORMAL":6,"TEXCOORD_0":7},"indices":4,"material":1}]}],"materials":[{"pbrMetallicRoughness":{"baseColorFactor":[1,0.5627844356796117,0.9720182038834951,1],"metallicFactor":0,"roughnessFactor":0.995},"doubleSided":false},{"pbrMetallicRoughness":{"baseColorFactor":[1,0.5627844356796117,0.9720182038834951,1],"metallicFactor":0,"roughnessFactor":0.995},"doubleSided":false}],"buffers":[{"uri":"data:application/octet-stream;base64,","byteLength":496696},{"uri":"data:application/octet-stream;base64,","byteLength":183584}],"bufferViews":[{"buffer":0,"byteOffset":0,"byteLength":135096,"target":34963},{"buffer":0,"byteOffset":135096,"byteLength":135600,"target":34962},{"buffer":0,"byteOffset":270696,"byteLength":135600,"target":34962},{"buffer":0,"byteOffset":406296,"byteLength":90400,"target":34962},{"buffer":1,"byteOffset":0,"byteLength":48384,"target":34963},{"buffer":1,"byteOffset":48384,"byteLength":50700,"target":34962},{"buffer":1,"byteOffset":99084,"byteLength":50700,"target":34962},{"buffer":1,"byteOffset":149784,"byteLength":33800,"target":34962}],"accessors":[{"bufferView":0,"byteOffset":0,"componentType":5123,"count":67548,"type":"SCALAR","min":[0],"max":[11299]},{"bufferView":1,"byteOffset":0,"componentType":5126,"count":11300,"type":"VEC3","min":[-88.29031372070312,-275.5553283691406,-78.62239074707031],"max":[718.1040649414062,157.35601806640625,60.0789909362793]},{"bufferView":2,"byteOffset":0,"componentType":5126,"count":11300,"type":"VEC3","min":[-0.9999702572822571,-0.9996198415756226,-0.999980628490448],"max":[0.9999596476554871,0.9999674558639526,0.9999945759773254]},{"bufferView":3,"byteOffset":0,"componentType":5126,"count":11300,"type":"VEC2","min":[0,0],"max":[1,1]},{"bufferView":4,"byteOffset":0,"componentType":5123,"count":24192,"type":"SCALAR","min":[0],"max":[4224]},{"bufferView":5,"byteOffset":0,"componentType":5126,"count":4225,"type":"VEC3","min":[-21.87101173400879,-21.87101173400879,-21.87101173400879],"max":[21.87101173400879,21.87101173400879,21.87101173400879]},{"bufferView":6,"byteOffset":0,"componentType":5126,"count":4225,"type":"VEC3","min":[-1,-1,-1],"max":[1,1,1]},{"bufferView":7,"byteOffset":0,"componentType":5126,"count":4225,"type":"VEC2","min":[-0.0078125,0],"max":[1.0078125,1]}],"extensions":{"KHR_lights_punctual":{"lights":[]}},"extensionsUsed":["KHR_lights_punctual"]}