{"asset":{"generator":"Khronos glTF Spline I/O v0.0.1","version":"2.0"},"scenes":[{"nodes":[0]}],"nodes":[{"name":"","children":[1,2],"matrix":[0.01,0,0,0,0,0.01,0,0,0,0,0.01,0,0,0,0,1]},{"name":"","camera":0,"translation":[0,6.123233995736766e-14,1000],"rotation":[-3.0616169978683824e-17,0,0,1]},{"name":"Little","matrix":[0.9999999999999997,0,0,0,0,0.9999999999999979,0,0,0,0,0.9999999999999997,0,0,0,0,1],"children":[3,4,5,6,7,8,9,10,11,12]},{"name":"Cube 9","matrix":[0.7848083474806229,0.5869136619524337,0.199018117613224,0,-0.5625129557629361,0.53983083467435,0.626228268711692,0,0.26010580986124754,-0.6034194423022657,0.7538102840423754,0,-1.4018554875360592,148.9090615366958,25.990568499959576,1],"mesh":0},{"name":"Cube 10","matrix":[0.26174730286049963,0.7600776885448837,-0.34740203316132223,0,-0.6370320693429458,0.3684840314758182,0.6304282020276762,0,0.7168291155062914,0.052586864917462416,0.6905448093908042,0,0.5195907537668005,103.34667416420633,65.02516762401478,1.0000000000000002],"mesh":1},{"name":"Cube 11","matrix":[0.6769975330208311,0.5158630861640744,0.44403013014824705,0,-0.5551972033374726,-0.018833299613048138,0.8750607472204976,0,0.5071410982906684,-0.7149272534653626,0.2959070908483421,0,1.0867488981171007,96.78833761850852,64.43526964821021,1],"mesh":2},{"name":"Cube 12","matrix":[0.26616489293701895,-0.03530148582354958,-0.0051472171942004655,0,-0.03443740248399421,-0.26436079961762926,0.03230900670171873,0,-0.009314185758826365,-0.031362584436650916,-0.26654469272426495,0,-29.902360630516796,21.73674078488621,24.162510804772015,1.0000000000000002],"mesh":3},{"name":"Cube 12","matrix":[0.2413127218267841,0.11575107686538495,-0.02205215335113473,0,0.11746427204290184,-0.24028007716065253,0.024167504866536155,0,-0.009314185758826888,-0.03136258443665253,-0.26654469272427894,0,28.307339204540877,21.54147752703537,22.503005186881463,0.9999999999999999],"mesh":4},{"name":"Cube 13","matrix":[0.23199657281872108,0.11974104390443267,0.06289762780434315,0,0.11746427204290398,-0.240280077160657,0.024167504866536533,0,0.06705351573310718,0.006633694499978352,-0.25995434042058657,0,60.878107253164444,65.28210215348652,32.91459526352378,1],"mesh":5},{"name":"Cube 14","matrix":[0.2355812803604704,-0.10924275449640684,-0.06843916942897749,0,-0.12069904494915323,-0.23699310523734593,-0.03718128019165542,0,-0.045272948550466936,0.0633776588268097,-0.2570020845626983,0,-62.23176209129281,61.392996219701644,32.58318813307472,1],"mesh":6},{"name":"Sphere 4","matrix":[0.7763485525512299,0,0,0,0,0.7763485525512299,0,0,0,0,0.7763485525512299,0,-29.55642506974879,111.99189561904579,60.60682318759192,1],"mesh":7},{"name":"Sphere 5","matrix":[0.7763485525512299,0,0,0,0,0.7763485525512299,0,0,0,0,0.7763485525512299,0,30.831212868460057,111.99189561904579,60.60682318759192,1],"mesh":8},{"name":"Cube 8","matrix":[1,0,0,0,0,1,0,0,0,0,1,0,0.1518126160299289,78.38091154467223,9.858829498291016,1],"mesh":9}],"cameras":[{"type":"perspective","perspective":{"aspectRatio":1.868974042027194,"yfov":0.7853981633974483,"znear":70,"zfar":100000}}],"meshes":[{"primitives":[{"attributes":{"POSITION":1,"NORMAL":2},"indices":0}]},{"primitives":[{"attributes":{"POSITION":4,"NORMAL":5},"indices":3}]},{"primitives":[{"attributes":{"POSITION":7,"NORMAL":8},"indices":6}]},{"primitives":[{"attributes":{"POSITION":10,"NORMAL":11},"indices":9}]},{"primitives":[{"attributes":{"POSITION":13,"NORMAL":14},"indices":12}]},{"primitives":[{"attributes":{"POSITION":16,"NORMAL":17},"indices":15}]},{"primitives":[{"attributes":{"POSITION":19,"NORMAL":20},"indices":18}]},{"primitives":[{"attributes":{"POSITION":22,"NORMAL":23,"TEXCOORD_0":24},"indices":21}]},{"primitives":[{"attributes":{"POSITION":26,"NORMAL":27,"TEXCOORD_0":28},"indices":25}]},{"primitives":[{"attributes":{"POSITION":30,"NORMAL":31},"indices":29}]}],"buffers":[{"uri":"data:application/octet-stream;base64,","byteLength":26880},{"uri":"data:application/octet-stream;base64,","byteLength":26880},{"uri":"data:application/octet-stream;base64,","byteLength":26880},{"uri":"data:application/octet-stream;base64,","byteLength":26880},{"uri":"data:application/octet-stream;base64,","byteLength":26880},{"uri":"data:application/octet-stream;base64,","byteLength":26880},{"uri":"data:application/octet-stream;base64,","byteLength":26880},{"uri":"data:application/octet-stream;base64,","byteLength":183584},{"uri":"data:application/octet-stream;base64,","byteLength":183584},{"uri":"data:application/octet-stream;base64,","byteLength":414720}],"bufferViews":[{"buffer":0,"byteOffset":0,"byteLength":5376,"target":34963},{"buffer":0,"byteOffset":5376,"byteLength":10752,"target":34962},{"buffer":0,"byteOffset":16128,"byteLength":10752,"target":34962},{"buffer":1,"byteOffset":0,"byteLength":5376,"target":34963},{"buffer":1,"byteOffset":5376,"byteLength":10752,"target":34962},{"buffer":1,"byteOffset":16128,"byteLength":10752,"target":34962},{"buffer":2,"byteOffset":0,"byteLength":5376,"target":34963},{"buffer":2,"byteOffset":5376,"byteLength":10752,"target":34962},{"buffer":2,"byteOffset":16128,"byteLength":10752,"target":34962},{"buffer":3,"byteOffset":0,"byteLength":5376,"target":34963},{"buffer":3,"byteOffset":5376,"byteLength":10752,"target":34962},{"buffer":3,"byteOffset":16128,"byteLength":10752,"target":34962},{"buffer":4,"byteOffset":0,"byteLength":5376,"target":34963},{"buffer":4,"byteOffset":5376,"byteLength":10752,"target":34962},{"buffer":4,"byteOffset":16128,"byteLength":10752,"target":34962},{"buffer":5,"byteOffset":0,"byteLength":5376,"target":34963},{"buffer":5,"byteOffset":5376,"byteLength":10752,"target":34962},{"buffer":5,"byteOffset":16128,"byteLength":10752,"target":34962},{"buffer":6,"byteOffset":0,"byteLength":5376,"target":34963},{"buffer":6,"byteOffset":5376,"byteLength":10752,"target":34962},{"buffer":6,"byteOffset":16128,"byteLength":10752,"target":34962},{"buffer":7,"byteOffset":0,"byteLength":48384,"target":34963},{"buffer":7,"byteOffset":48384,"byteLength":50700,"target":34962},{"buffer":7,"byteOffset":99084,"byteLength":50700,"target":34962},{"buffer":7,"byteOffset":149784,"byteLength":33800,"target":34962},{"buffer":8,"byteOffset":0,"byteLength":48384,"target":34963},{"buffer":8,"byteOffset":48384,"byteLength":50700,"target":34962},{"buffer":8,"byteOffset":99084,"byteLength":50700,"target":34962},{"buffer":8,"byteOffset":149784,"byteLength":33800,"target":34962},{"buffer":9,"byteOffset":0,"byteLength":82944,"target":34963},{"buffer":9,"byteOffset":82944,"byteLength":165888,"target":34962},{"buffer":9,"byteOffset":248832,"byteLength":165888,"target":34962}],"accessors":[{"bufferView":0,"byteOffset":0,"componentType":5125,"count":1344,"type":"SCALAR","min":[0],"max":[895]},{"bufferView":1,"byteOffset":0,"componentType":5126,"count":896,"type":"VEC3","min":[-13.031410217285156,-35.35270690917969,-13.651952743530273],"max":[13.031410217285156,21.33477210998535,13.651952743530273]},{"bufferView":2,"byteOffset":0,"componentType":5126,"count":896,"type":"VEC3","min":[-0.9999967813491821,-1,-0.9999964833259583],"max":[0.9999967813491821,1,0.9999964833259583]},{"bufferView":3,"byteOffset":0,"componentType":5125,"count":1344,"type":"SCALAR","min":[0],"max":[895]},{"bufferView":4,"byteOffset":0,"componentType":5126,"count":896,"type":"VEC3","min":[-8.067063331604004,-19.149383544921875,-7.44651985168457],"max":[8.067063331604004,11.556334495544434,7.44651985168457]},{"bufferView":5,"byteOffset":0,"componentType":5126,"count":896,"type":"VEC3","min":[-0.9999958276748657,-1,-0.9999964237213135],"max":[0.9999958276748657,1,0.9999964237213135]},{"bufferView":6,"byteOffset":0,"componentType":5125,"count":1344,"type":"SCALAR","min":[0],"max":[895]},{"bufferView":7,"byteOffset":0,"componentType":5126,"count":896,"type":"VEC3","min":[-6.825977325439453,-19.149383544921875,-7.44651985168457],"max":[6.825977325439453,11.556334495544434,7.44651985168457]},{"bufferView":8,"byteOffset":0,"componentType":5126,"count":896,"type":"VEC3","min":[-0.9999969601631165,-1,-0.9999964237213135],"max":[0.9999969601631165,1,0.9999964237213135]},{"bufferView":9,"byteOffset":0,"componentType":5125,"count":1344,"type":"SCALAR","min":[0],"max":[895]},{"bufferView":10,"byteOffset":0,"componentType":5126,"count":896,"type":"VEC3","min":[-34.53040313720703,-79.2316665649414,-34.53040313720703],"max":[34.53040313720703,76.7490234375,34.53040313720703]},{"bufferView":11,"byteOffset":0,"componentType":5126,"count":896,"type":"VEC3","min":[-1,-1,-1],"max":[1,1,1]},{"bufferView":12,"byteOffset":0,"componentType":5125,"count":1344,"type":"SCALAR","min":[0],"max":[895]},{"bufferView":13,"byteOffset":0,"componentType":5126,"count":896,"type":"VEC3","min":[-34.53040313720703,-79.2316665649414,-34.53040313720703],"max":[34.53040313720703,76.7490234375,34.53040313720703]},{"bufferView":14,"byteOffset":0,"componentType":5126,"count":896,"type":"VEC3","min":[-1,-1,-1],"max":[1,1,1]},{"bufferView":15,"byteOffset":0,"componentType":5125,"count":1344,"type":"SCALAR","min":[0],"max":[895]},{"bufferView":16,"byteOffset":0,"componentType":5126,"count":896,"type":"VEC3","min":[-34.095436096191406,-79.2316665649414,-70.39053344726562],"max":[34.095436096191406,76.7490234375,70.97518157958984]},{"bufferView":17,"byteOffset":0,"componentType":5126,"count":896,"type":"VEC3","min":[-0.9999914169311523,-1,-0.9995948076248169],"max":[0.9999814629554749,0.9999986886978149,0.9982821941375732]},{"bufferView":18,"byteOffset":0,"componentType":5125,"count":1344,"type":"SCALAR","min":[0],"max":[895]},{"bufferView":19,"byteOffset":0,"componentType":5126,"count":896,"type":"VEC3","min":[-34.095436096191406,-79.2316665649414,-70.39053344726562],"max":[34.095436096191406,76.7490234375,70.97518157958984]},{"bufferView":20,"byteOffset":0,"componentType":5126,"count":896,"type":"VEC3","min":[-0.9999914169311523,-1,-0.9995948076248169],"max":[0.9999814629554749,0.9999986886978149,0.9982821941375732]},{"bufferView":21,"byteOffset":0,"componentType":5123,"count":24192,"type":"SCALAR","min":[0],"max":[4224]},{"bufferView":22,"byteOffset":0,"componentType":5126,"count":4225,"type":"VEC3","min":[-9,-9,-9],"max":[9,9,9]},{"bufferView":23,"byteOffset":0,"componentType":5126,"count":4225,"type":"VEC3","min":[-1,-1,-1],"max":[1,1,1]},{"bufferView":24,"byteOffset":0,"componentType":5126,"count":4225,"type":"VEC2","min":[-0.0078125,0],"max":[1.0078125,1]},{"bufferView":25,"byteOffset":0,"componentType":5123,"count":24192,"type":"SCALAR","min":[0],"max":[4224]},{"bufferView":26,"byteOffset":0,"componentType":5126,"count":4225,"type":"VEC3","min":[-9,-9,-9],"max":[9,9,9]},{"bufferView":27,"byteOffset":0,"componentType":5126,"count":4225,"type":"VEC3","min":[-1,-1,-1],"max":[1,1,1]},{"bufferView":28,"byteOffset":0,"componentType":5126,"count":4225,"type":"VEC2","min":[-0.0078125,0],"max":[1.0078125,1]},{"bufferView":29,"byteOffset":0,"componentType":5125,"count":20736,"type":"SCALAR","min":[0],"max":[13823]},{"bufferView":30,"byteOffset":0,"componentType":5126,"count":13824,"type":"VEC3","min":[-68.31685638427734,-74.6014633178711,-90.32086944580078],"max":[68.31685638427734,74.77496337890625,66.73279571533203]},{"bufferView":31,"byteOffset":0,"componentType":5126,"count":13824,"type":"VEC3","min":[-0.999978244304657,-1.000000238418579,-0.9970079660415649],"max":[0.999978244304657,1.000000238418579,0.999951183795929]}],"extensions":{"KHR_lights_punctual":{"lights":[]}},"extensionsUsed":["KHR_lights_punctual"]}