{
  "asset": {
    "version": "2.0",
    "generator": "THREE.GLTFExporter"
  },
  "scenes": [
    {
      "nodes": [
        0
      ]
    }
  ],
  "scene": 0,
  "nodes": [
    {
      "children": [
        2,
        3,
        4
      ],
      "matrix": [
        0.01,
        0,
        0,
        0,
        0,
        0.01,
        0,
        0,
        0,
        0,
        0.01,
        0,
        0,
        0,
        0,
        1
      ]
    },
    {
      "matrix": [
        1,
        0,
        0,
        0,
        0,
        1.000000000000006,
        0,
        0,
        0,
        0,
        1,
        0,
        -0.8836135864257812,
        81.32118345959901,
        0,
        1
      ],
      "name": "Cube",
      "mesh": 0
    },
    {
      "matrix": [
        1,
        0,
        0,
        0,
        0,
        1,
        0,
        0,
        0,
        0,
        1,
        0,
        3.637978807091713e-12,
        0,
        0,
        1
      ],
      "name": "cloud",
      "children": [
        1
      ]
    },
    {
      "matrix": [
        0.7071067811865477,
        0,
        -0.7071067811865474,
        0,
        -0.40824829046386285,
        0.816496580927726,
        -0.408248290463863,
        0,
        0.5773502691896256,
        0.5773502691896256,
        0.577350269189626,
        0,
        607.5376516145518,
        636.3850273085774,
        540.166991988403,
        1
      ],
      "camera": 0
    },
    {
      "matrix": [
        1,
        0,
        0,
        0,
        0,
        1,
        0,
        0,
        0,
        0,
        1,
        0,
        0,
        1,
        0,
        1
      ],
      "name": "Default Ambient Light"
    }
  ],
  "bufferViews": [
    {
      "buffer": 0,
      "byteOffset": 0,
      "byteLength": 3456,
      "target": 34962,
      "byteStride": 12
    },
    {
      "buffer": 0,
      "byteOffset": 3456,
      "byteLength": 3456,
      "target": 34962,
      "byteStride": 12
    },
    {
      "buffer": 0,
      "byteOffset": 6912,
      "byteLength": 1728,
      "target": 34963
    }
  ],
  "buffers": [
    {
      "byteLength": 8640,
      "uri": "data:application/octet-stream;base64,"
    }
  ],
  "accessors": [
    {
      "bufferView": 0,
      "componentType": 5126,
      "count": 288,
      "max": [
        181.73690795898438,
        119.49014282226562,
        100
      ],
      "min": [
        -178.26309204101562,
        -80.50985717773438,
        -100
      ],
      "type": "VEC3"
    },
    {
      "bufferView": 1,
      "componentType": 5126,
      "count": 288,
      "max": [
        0.8660979866981506,
        0.9991266131401062,
        0.9909963607788086
      ],
      "min": [
        -0.8461064696311951,
        -1,
        -0.9904648065567017
      ],
      "type": "VEC3"
    },
    {
      "bufferView": 2,
      "componentType": 5125,
      "count": 432,
      "max": [
        287
      ],
      "min": [
        0
      ],
      "type": "SCALAR"
    }
  ],
  "materials": [
    {
      "alphaMode": "BLEND",
      "pbrMetallicRoughness": {
        "baseColorFactor": [
          1,
          1,
          1,
          0.5
        ],
        "metallicFactor": 0,
        "roughnessFactor": 1
      },
      "doubleSided": false
    }
  ],
  "meshes": [
    {
      "primitives": [
        {
          "mode": 4,
          "attributes": {
            "POSITION": 0,
            "NORMAL": 1
          },
          "extras": {
            "type": "SubdivGeometry",
            "parameters": {
              "width": 360,
              "height": 200,
              "depth": 200
            }
          },
          "indices": 2,
          "material": 0
        }
      ]
    }
  ],
  "cameras": [
    {
      "type": "orthographic",
      "orthographic": {
        "xmag": 3.686822842113405,
        "ymag": 1.9726452905223177,
        "zfar": 100000,
        "znear": 0
      }
    }
  ]
}