{
  "asset": {
    "version": "2.0",
    "generator": "THREE.GLTFExporter"
  },
  "scenes": [
    {
      "nodes": [
        0
      ]
    }
  ],
  "scene": 0,
  "nodes": [
    {
      "children": [
        2,
        3,
        4
      ],
      "matrix": [
        0.01,
        0,
        0,
        0,
        0,
        0.01,
        0,
        0,
        0,
        0,
        0.01,
        0,
        0,
        0,
        0,
        1
      ]
    },
    {
      "matrix": [
        0.9999999999999365,
        -1.1102230246250874e-16,
        -6.1062266354379695e-16,
        0,
        5.5511151231254444e-17,
        0.9999999999999365,
        0,
        0,
        6.661338147750513e-16,
        -1.639351568662311e-30,
        0.9999999999999365,
        0,
        -0.04029722169164442,
        -7.227088457366444,
        2.5737418791887077,
        0.9999999999999787
      ],
      "name": "landplant",
      "mesh": 0
    },
    {
      "name": "House",
      "children": [
        1
      ]
    },
    {
      "matrix": [
        0.0000628318518366422,
        0,
        -0.9999999980260792,
        0,
        -5.684341874860355e-17,
        1,
        -3.571577271751172e-21,
        0,
        0.9999999980260792,
        5.684341886080795e-17,
        0.0000628318518366422,
        0,
        846.186436940554,
        335.2168230319698,
        -83.192674981202,
        1
      ],
      "camera": 0
    },
    {
      "matrix": [
        1,
        0,
        0,
        0,
        0,
        1,
        0,
        0,
        0,
        0,
        1,
        0,
        0,
        1,
        0,
        1
      ],
      "name": "Default Ambient Light"
    }
  ],
  "bufferViews": [
    {
      "buffer": 0,
      "byteOffset": 0,
      "byteLength": 288,
      "target": 34962,
      "byteStride": 12
    },
    {
      "buffer": 0,
      "byteOffset": 288,
      "byteLength": 288,
      "target": 34962,
      "byteStride": 12
    },
    {
      "buffer": 0,
      "byteOffset": 576,
      "byteLength": 192,
      "target": 34962,
      "byteStride": 8
    },
    {
      "buffer": 0,
      "byteOffset": 768,
      "byteLength": 72,
      "target": 34963
    }
  ],
  "buffers": [
    {
      "byteLength": 840,
      "uri": "data:application/octet-stream;base64,"
    }
  ],
  "accessors": [
    {
      "bufferView": 0,
      "componentType": 5126,
      "count": 24,
      "max": [
        50,
        5,
        50
      ],
      "min": [
        -50,
        -5,
        -50
      ],
      "type": "VEC3"
    },
    {
      "bufferView": 1,
      "componentType": 5126,
      "count": 24,
      "max": [
        1,
        1,
        1
      ],
      "min": [
        -1,
        -1,
        -1
      ],
      "type": "VEC3"
    },
    {
      "bufferView": 2,
      "componentType": 5126,
      "count": 24,
      "max": [
        1,
        1
      ],
      "min": [
        0,
        0
      ],
      "type": "VEC2"
    },
    {
      "bufferView": 3,
      "componentType": 5123,
      "count": 36,
      "max": [
        23
      ],
      "min": [
        0
      ],
      "type": "SCALAR"
    }
  ],
  "materials": [
    {
      "pbrMetallicRoughness": {
        "baseColorFactor": [
          0.20271262130546347,
          0.05996794547673915,
          0.011878070927464833,
          1
        ],
        "metallicFactor": 0,
        "roughnessFactor": 0.9131660908646596
      },
      "doubleSided": false
    }
  ],
  "meshes": [
    {
      "primitives": [
        {
          "mode": 4,
          "attributes": {
            "POSITION": 0,
            "NORMAL": 1,
            "TEXCOORD_0": 2
          },
          "extras": {
            "parameters": {
              "width": 100,
              "widthSegments": 1,
              "heightSegments": 1,
              "depthSegments": 1,
              "cornerRadius": 0,
              "cornerSegments": 8,
              "height": 10,
              "depth": 100,
              "type": "CubeGeometry"
            },
            "type": "CubeGeometry"
          },
          "indices": 3,
          "material": 0
        }
      ]
    }
  ],
  "cameras": [
    {
      "type": "orthographic",
      "orthographic": {
        "xmag": 6.157667249999999,
        "ymag": 3.5268120625,
        "zfar": 100000,
        "znear": 0
      }
    }
  ]
}