{"asset":{"generator":"Khronos glTF Spline I/O v0.0.1","version":"2.0"},"scenes":[{"nodes":[0]}],"nodes":[{"name":"","children":[1,2],"matrix":[0.01,0,0,0,0,0.01,0,0,0,0,0.01,0,0,0,0,1]},{"name":"","camera":0,"translation":[589.1329577151588,581.3317800066005,577.3502691896257],"rotation":[-0.279848139615856,0.3647052017160318,0.11591690251935428,0.8804762383535013]},{"name":"Group","matrix":[1,0,0,0,0,1,0,0,0,0,1,0,0,0,0,1],"children":[3]},{"name":"Cube","matrix":[1,0,0,0,0,1,0,0,0,0,1,0,0,-17.856742986226465,0,1],"mesh":0}],"cameras":[{"type":"orthographic","orthographic":{"xmag":1512,"ymag":809,"zfar":100000,"znear":-100000}}],"meshes":[{"primitives":[{"attributes":{"POSITION":1,"NORMAL":2,"TEXCOORD_0":3},"indices":0,"material":0}]}],"materials":[{"pbrMetallicRoughness":{"baseColorFactor":[0.8786815542035398,0.5289997787599067,0.3116300264571079,1],"metallicFactor":0,"roughnessFactor":0.3},"doubleSided":false}],"buffers":[{"uri":"data:application/octet-stream;base64,","byteLength":840}],"bufferViews":[{"buffer":0,"byteOffset":0,"byteLength":72,"target":34963},{"buffer":0,"byteOffset":72,"byteLength":288,"target":34962},{"buffer":0,"byteOffset":360,"byteLength":288,"target":34962},{"buffer":0,"byteOffset":648,"byteLength":192,"target":34962}],"accessors":[{"bufferView":0,"byteOffset":0,"componentType":5123,"count":36,"type":"SCALAR","min":[0],"max":[23]},{"bufferView":1,"byteOffset":0,"componentType":5126,"count":24,"type":"VEC3","min":[-50,-32.5,-50],"max":[50,32.5,50]},{"bufferView":2,"byteOffset":0,"componentType":5126,"count":24,"type":"VEC3","min":[-1,-1,-1],"max":[1,1,1]},{"bufferView":3,"byteOffset":0,"componentType":5126,"count":24,"type":"VEC2","min":[0,0],"max":[1,1]}],"extensions":{"KHR_lights_punctual":{"lights":[]}},"extensionsUsed":["KHR_lights_punctual"]}