{
  "asset": {
    "version": "2.0",
    "generator": "THREE.GLTFExporter"
  },
  "scenes": [
    {
      "nodes": [
        0
      ]
    }
  ],
  "scene": 0,
  "nodes": [
    {
      "children": [
        24,
        25,
        26
      ],
      "matrix": [
        0.01,
        0,
        0,
        0,
        0,
        0.01,
        0,
        0,
        0,
        0,
        0.01,
        0,
        0,
        0,
        0,
        1
      ]
    },
    {
      "matrix": [
        -1,
        -2.465190328815662e-32,
        1.2246467991473532e-16,
        0,
        1.2246467991473532e-16,
        -2.220446049250313e-16,
        1,
        0,
        0,
        1,
        2.220446049250313e-16,
        0,
        14.00302017142063,
        33.088978301384486,
        0,
        1
      ],
      "mesh": 1
    },
    {
      "matrix": [
        -0.8405523431227673,
        0.5417303374104372,
        1.6653345369377348e-16,
        0,
        1.162061341051003e-16,
        -4.648245364204012e-16,
        2.093383609015582,
        0,
        0.5417303374104372,
        0.840552343122767,
        0,
        0,
        3.082145708914012,
        22.48238801696958,
        0,
        1
      ],
      "mesh": 1
    },
    {
      "matrix": [
        -0.879209709592975,
        0.47643497621127406,
        2.498001805406602e-16,
        0,
        2.7039862187590864e-16,
        -4.326377950014538e-16,
        1.9484274123549403,
        0,
        0.47643497621127406,
        0.8792097095929747,
        0,
        0,
        19.590669771831017,
        2.5560466979943572,
        0,
        1
      ],
      "mesh": 1
    },
    {
      "matrix": [
        -0.8222459494831087,
        0.5691323207819258,
        2.220446049250313e-16,
        0,
        2.3940013668747645e-16,
        0,
        2.1563247327563295,
        0,
        0.5691323207819258,
        0.8222459494831087,
        2.220446049250313e-16,
        0,
        10.552718805751027,
        0.42178430432446967,
        0,
        1
      ],
      "mesh": 1
    },
    {
      "matrix": [
        -0.9928939347019319,
        0.11900266565130574,
        1.3183898417423734e-16,
        0,
        1.4483490806878709e-16,
        -2.726304151883051e-16,
        1.2278182362519148,
        0,
        0.11900266565130574,
        0.9928939347019318,
        1.1102230246251565e-16,
        0,
        48.643930451850665,
        20.569192523951642,
        0,
        1
      ],
      "mesh": 1
    },
    {
      "matrix": [
        -0.8903632345512347,
        0.45525082159120034,
        2.498001805406602e-16,
        0,
        2.640530095096306e-16,
        -4.2248481521540896e-16,
        1.9027024563738086,
        0,
        0.45525082159120034,
        0.8903632345512348,
        1.1102230246251565e-16,
        0,
        35.522190674964804,
        30.978930775017943,
        0,
        1
      ],
      "mesh": 1
    },
    {
      "matrix": [
        -0.8248541679010213,
        0.5653455595441729,
        1.6653345369377348e-16,
        0,
        2.384251722769734e-16,
        -4.768503445539468e-16,
        2.1475430340446473,
        0,
        0.565345559544173,
        0.8248541679010213,
        0,
        0,
        31.86810665356461,
        -8.540108288074169,
        0,
        1
      ],
      "mesh": 1
    },
    {
      "matrix": [
        -0.79264217365172,
        0.6096871202089453,
        1.6653345369377348e-16,
        0,
        1.2502384897037057e-16,
        -1.0001907917629645e-15,
        2.2522294385415447,
        0,
        0.6096871202089453,
        0.79264217365172,
        0,
        0,
        44.019090268026474,
        -25.073025182929833,
        0,
        1
      ],
      "mesh": 1
    },
    {
      "matrix": [
        -0.9776507734082922,
        0.2102354995098764,
        1.5265566588595902e-16,
        0,
        1.7542697906897098e-16,
        0,
        1.4045384490057766,
        0,
        0.2102354995098764,
        0.9776507734082925,
        3.3306690738754696e-16,
        0,
        -44.94400689901799,
        40.0452762041823,
        0,
        1
      ],
      "mesh": 1
    },
    {
      "matrix": [
        -0.9016702378052805,
        0.4324243081235938,
        2.220446049250313e-16,
        0,
        2.573011780241372e-16,
        -4.116818848386195e-16,
        1.8540503831543902,
        0,
        0.4324243081235938,
        0.9016702378052807,
        1.1102230246251565e-16,
        0,
        38.525530048354995,
        -44.39627627570287,
        0,
        1
      ],
      "mesh": 1
    },
    {
      "matrix": [
        -0.994926823517416,
        0.1006012715900958,
        1.3183898417423734e-16,
        0,
        1.4066399016983894e-16,
        0,
        1.1924598469898045,
        0,
        0.1006012715900958,
        0.994926823517416,
        3.3306690738754696e-16,
        0,
        -27.61455013678642,
        -17.608214513172722,
        0,
        1
      ],
      "mesh": 1
    },
    {
      "matrix": [
        -0.8138836234269915,
        0.58102792318214,
        1.1102230246251565e-16,
        0,
        2.4248334377886623e-16,
        -4.849666875577325e-16,
        2.1840957933721072,
        0,
        0.58102792318214,
        0.8138836234269916,
        1.1102230246251565e-16,
        0,
        6.823151860255615,
        43.04208225948969,
        0,
        1
      ],
      "mesh": 1
    },
    {
      "matrix": [
        -0.840298960918473,
        0.5421232851292539,
        1.6653345369377348e-16,
        0,
        1.1625570389476103e-16,
        -4.650228155790441e-16,
        2.094276578960562,
        0,
        0.5421232851292539,
        0.8402989609184731,
        1.1102230246251565e-16,
        0,
        29.97723143355858,
        -3.3771080255133934,
        0,
        1
      ],
      "mesh": 1
    },
    {
      "matrix": [
        -0.8692511527876474,
        0.4943707448639588,
        1.942890293094024e-16,
        0,
        3.8617059151463435e-16,
        2.206689094369339e-16,
        1.9876088366248583,
        0,
        0.4943707448639588,
        0.8692511527876475,
        1.1102230246251565e-16,
        0,
        -40.3105117729865,
        -28.890465942095034,
        0,
        1
      ],
      "mesh": 1
    },
    {
      "matrix": [
        -0.8113313797218527,
        0.5845865139383859,
        1.6653345369377348e-16,
        0,
        1.2170594992358714e-16,
        0,
        2.1924594828985566,
        0,
        0.5845865139383859,
        0.8113313797218528,
        2.220446049250313e-16,
        0,
        26.03548679908272,
        -12.209638092991776,
        0,
        1
      ],
      "mesh": 1
    },
    {
      "matrix": [
        -0.8755542394894409,
        0.4831198336976721,
        2.220446049250313e-16,
        0,
        3.269016296712241e-16,
        0,
        1.9629787434321768,
        0,
        0.4831198336976721,
        0.875554239489441,
        3.3306690738754696e-16,
        0,
        4.174150772675446,
        -5.338566511789894,
        0,
        1
      ],
      "mesh": 1
    },
    {
      "matrix": [
        -0.9667138863390132,
        0.25585984827502917,
        1.3877787807814457e-16,
        0,
        1.6588412556456617e-16,
        0,
        1.4941513721585213,
        0,
        0.25585984827502917,
        0.9667138863390133,
        2.220446049250313e-16,
        0,
        32.72965539508732,
        -40.73401732748607,
        0,
        1
      ],
      "mesh": 1
    },
    {
      "matrix": [
        -0.8918981792295584,
        0.4522362633480407,
        2.220446049250313e-16,
        0,
        2.631563997198376e-16,
        0,
        1.896241701949475,
        0,
        0.4522362633480406,
        0.8918981792295584,
        1.1102230246251565e-16,
        0,
        -42.4338794517098,
        -34.48482935200445,
        0,
        1
      ],
      "mesh": 1
    },
    {
      "matrix": [
        -0.8016313880457266,
        0.5978186327807806,
        2.220446049250313e-16,
        0,
        2.4689075952099667e-16,
        -9.875630380839867e-16,
        2.2237942651599587,
        0,
        0.5978186327807806,
        0.8016313880457266,
        0,
        0,
        -44.30090486120551,
        0.9348182313094704,
        0,
        1
      ],
      "mesh": 1
    },
    {
      "matrix": [
        -0.9436527238031887,
        0.33093736092925974,
        1.942890293094024e-16,
        0,
        2.2817710383908e-16,
        -3.6508336614252805e-16,
        1.6441893117186557,
        0,
        0.33093736092925974,
        0.9436527238031887,
        1.1102230246251565e-16,
        0,
        -16.329128445252167,
        -27.782382451523443,
        0,
        1
      ],
      "mesh": 1
    },
    {
      "matrix": [
        -0.977424328871495,
        0.21128578118299274,
        1.5265566588595902e-16,
        0,
        1.7568327188097432e-16,
        -3.123258166772877e-16,
        1.4065904316060187,
        0,
        0.21128578118299274,
        0.977424328871495,
        1.1102230246251565e-16,
        0,
        26.35655857996792,
        -47.1868792613786,
        0,
        1
      ],
      "mesh": 1
    },
    {
      "children": [
        1,
        2,
        3,
        4,
        5,
        6,
        7,
        8,
        9,
        10,
        11,
        12,
        13,
        14,
        15,
        16,
        17,
        18,
        19,
        20,
        21
      ]
    },
    {
      "matrix": [
        1,
        0,
        1.0947644252537633e-47,
        0,
        0,
        2.220446049250313e-16,
        -1,
        0,
        0,
        1,
        2.220446049250313e-16,
        0,
        0,
        3.9908838502094035,
        0,
        1
      ],
      "name": "Plane",
      "mesh": 0,
      "children": [
        22
      ]
    },
    {
      "name": "Group",
      "children": [
        23
      ]
    },
    {
      "matrix": [
        0.7071067811865474,
        0,
        -0.7071067811865477,
        0,
        -0.40824829046386296,
        0.8164965809277261,
        -0.4082482904638628,
        0,
        0.577350269189626,
        0.5773502691896256,
        0.5773502691896257,
        0,
        111.83937769723771,
        111.83937769723765,
        111.83937769723777,
        1
      ],
      "camera": 0
    },
    {
      "matrix": [
        1,
        0,
        0,
        0,
        0,
        1,
        0,
        0,
        0,
        0,
        1,
        0,
        0,
        1,
        0,
        1
      ],
      "name": "Default Ambient Light"
    }
  ],
  "bufferViews": [
    {
      "buffer": 0,
      "byteOffset": 0,
      "byteLength": 12288,
      "target": 34962,
      "byteStride": 12
    },
    {
      "buffer": 0,
      "byteOffset": 12288,
      "byteLength": 12288,
      "target": 34962,
      "byteStride": 12
    },
    {
      "buffer": 0,
      "byteOffset": 24576,
      "byteLength": 6144,
      "target": 34963
    },
    {
      "buffer": 0,
      "byteOffset": 30720,
      "byteLength": 864,
      "target": 34962,
      "byteStride": 12
    },
    {
      "buffer": 0,
      "byteOffset": 31584,
      "byteLength": 864,
      "target": 34962,
      "byteStride": 12
    },
    {
      "buffer": 0,
      "byteOffset": 32448,
      "byteLength": 432,
      "target": 34963
    }
  ],
  "buffers": [
    {
      "byteLength": 32880,
      "uri": "data:application/octet-stream;base64,"
    }
  ],
  "accessors": [
    {
      "bufferView": 0,
      "componentType": 5126,
      "count": 1024,
      "max": [
        49.999996185302734,
        49.999996185302734,
        0
      ],
      "min": [
        -49.999996185302734,
        -49.999996185302734,
        0
      ],
      "type": "VEC3"
    },
    {
      "bufferView": 1,
      "componentType": 5126,
      "count": 1024,
      "max": [
        0,
        0,
        1
      ],
      "min": [
        0,
        0,
        1
      ],
      "type": "VEC3"
    },
    {
      "bufferView": 2,
      "componentType": 5125,
      "count": 1536,
      "max": [
        1023
      ],
      "min": [
        0
      ],
      "type": "SCALAR"
    },
    {
      "bufferView": 3,
      "componentType": 5126,
      "count": 72,
      "max": [
        4.005000114440918,
        20.0399112701416,
        1.081843376159668
      ],
      "min": [
        -4.005000114440918,
        0.03991207107901573,
        -10.884398460388184
      ],
      "type": "VEC3"
    },
    {
      "bufferView": 4,
      "componentType": 5126,
      "count": 72,
      "max": [
        1,
        1,
        1
      ],
      "min": [
        -1,
        -1,
        -1
      ],
      "type": "VEC3"
    },
    {
      "bufferView": 5,
      "componentType": 5125,
      "count": 108,
      "max": [
        71
      ],
      "min": [
        0
      ],
      "type": "SCALAR"
    }
  ],
  "materials": [
    {
      "pbrMetallicRoughness": {
        "baseColorFactor": [
          0.7529422167708612,
          0.450785782828426,
          0.2663556047920505,
          1
        ],
        "metallicFactor": 0,
        "roughnessFactor": 0.995
      },
      "doubleSided": false
    },
    {
      "pbrMetallicRoughness": {
        "baseColorFactor": [
          0.24495046583494584,
          0.7840161063841411,
          0.06596337383346007,
          1
        ],
        "metallicFactor": 0,
        "roughnessFactor": 0.995
      },
      "doubleSided": false
    }
  ],
  "meshes": [
    {
      "primitives": [
        {
          "mode": 4,
          "attributes": {
            "POSITION": 0,
            "NORMAL": 1
          },
          "extras": {
            "type": "SubdivGeometry",
            "parameters": {
              "width": 99.99999237060547,
              "height": 99.99999237060547,
              "depth": 0
            }
          },
          "indices": 2,
          "material": 0
        }
      ]
    },
    {
      "primitives": [
        {
          "mode": 4,
          "attributes": {
            "POSITION": 3,
            "NORMAL": 4
          },
          "extras": {
            "type": "SubdivGeometry",
            "parameters": {
              "width": 8.010000228881836,
              "height": 19.999999199062586,
              "depth": 11.966241836547852
            }
          },
          "indices": 5,
          "material": 1
        }
      ]
    }
  ],
  "cameras": [
    {
      "type": "perspective",
      "perspective": {
        "aspectRatio": 1.868974042027194,
        "yfov": 0.7853981633974483,
        "zfar": 100000,
        "znear": 5
      }
    }
  ]
}