{
  "asset": {
    "version": "2.0",
    "generator": "THREE.GLTFExporter"
  },
  "scenes": [
    {
      "nodes": [
        0
      ]
    }
  ],
  "scene": 0,
  "nodes": [
    {
      "children": [
        2,
        3,
        4
      ],
      "matrix": [
        0.01,
        0,
        0,
        0,
        0,
        0.01,
        0,
        0,
        0,
        0,
        0.01,
        0,
        0,
        0,
        0,
        1
      ]
    },
    {
      "matrix": [
        0.9999999999999295,
        -1.1102230246250796e-16,
        -6.106226635437927e-16,
        0,
        5.5511151231254055e-17,
        0.9999999999999295,
        0,
        0,
        6.661338147750468e-16,
        -1.6393515686622996e-30,
        0.9999999999999295,
        0,
        -0.040297221693434554,
        -7.22708845737355,
        0.032687300782491574,
        0.9999999999999787
      ],
      "name": "landplant",
      "mesh": 0
    },
    {
      "name": "House",
      "children": [
        1
      ]
    },
    {
      "matrix": [
        1,
        0,
        0,
        0,
        0,
        0.00009999999957122085,
        -0.999999995,
        0,
        0,
        0.999999995,
        0.00009999999957122085,
        0,
        47.42320945240024,
        1215.1365119028846,
        -180.31571043836735,
        1
      ],
      "camera": 0
    },
    {
      "matrix": [
        1,
        0,
        0,
        0,
        0,
        1,
        0,
        0,
        0,
        0,
        1,
        0,
        0,
        1,
        0,
        1
      ],
      "name": "Default Ambient Light"
    }
  ],
  "bufferViews": [
    {
      "buffer": 0,
      "byteOffset": 0,
      "byteLength": 288,
      "target": 34962,
      "byteStride": 12
    },
    {
      "buffer": 0,
      "byteOffset": 288,
      "byteLength": 288,
      "target": 34962,
      "byteStride": 12
    },
    {
      "buffer": 0,
      "byteOffset": 576,
      "byteLength": 192,
      "target": 34962,
      "byteStride": 8
    },
    {
      "buffer": 0,
      "byteOffset": 768,
      "byteLength": 72,
      "target": 34963
    }
  ],
  "buffers": [
    {
      "byteLength": 840,
      "uri": "data:application/octet-stream;base64,"
    }
  ],
  "accessors": [
    {
      "bufferView": 0,
      "componentType": 5126,
      "count": 24,
      "max": [
        50,
        5,
        50
      ],
      "min": [
        -50,
        -5,
        -50
      ],
      "type": "VEC3"
    },
    {
      "bufferView": 1,
      "componentType": 5126,
      "count": 24,
      "max": [
        1,
        1,
        1
      ],
      "min": [
        -1,
        -1,
        -1
      ],
      "type": "VEC3"
    },
    {
      "bufferView": 2,
      "componentType": 5126,
      "count": 24,
      "max": [
        1,
        1
      ],
      "min": [
        0,
        0
      ],
      "type": "VEC2"
    },
    {
      "bufferView": 3,
      "componentType": 5123,
      "count": 36,
      "max": [
        23
      ],
      "min": [
        0
      ],
      "type": "SCALAR"
    }
  ],
  "materials": [
    {
      "pbrMetallicRoughness": {
        "baseColorFactor": [
          0.0835007647542367,
          0.34427815618000057,
          0.027257537119454812,
          1
        ],
        "metallicFactor": 0,
        "roughnessFactor": 1
      },
      "doubleSided": false
    }
  ],
  "meshes": [
    {
      "primitives": [
        {
          "mode": 4,
          "attributes": {
            "POSITION": 0,
            "NORMAL": 1,
            "TEXCOORD_0": 2
          },
          "extras": {
            "parameters": {
              "width": 100,
              "widthSegments": 1,
              "heightSegments": 1,
              "depthSegments": 1,
              "cornerRadius": 0,
              "cornerSegments": 1,
              "height": 10,
              "depth": 100,
              "type": "CubeGeometry"
            },
            "type": "CubeGeometry"
          },
          "indices": 3,
          "material": 0
        }
      ]
    }
  ],
  "cameras": [
    {
      "type": "orthographic",
      "orthographic": {
        "xmag": 0.5817040130919522,
        "ymag": 0.3331717429481684,
        "zfar": 100000,
        "znear": 0
      }
    }
  ]
}