{"asset":{"generator":"Khronos glTF Spline I/O v0.0.1","version":"2.0"},"scenes":[{"nodes":[0]}],"nodes":[{"name":"","children":[1,2],"matrix":[0.01,0,0,0,0,0.01,0,0,0,0,0.01,0,0,0,0,1]},{"name":"","camera":0,"translation":[318.0941349422541,27.866757698765916,22.164864069985228],"rotation":[-2.1022744851131405e-17,0.7071067811865475,2.10227448511314e-17,0.7071067811865476]},{"name":"Group 3","matrix":[1,0,0,0,0,1,0,0,0,0,1,0,0,0,0,1],"children":[3,5,8]},{"name":"Group 3","matrix":[1,0,0,0,0,1,0,0,0,0,1,0,0,1.273592352221737,17.233604667050127,1],"children":[4]},{"name":"Cube","matrix":[1,0,0,0,0,1,0,0,0,0,1,0,0.8713912963867188,34.48763165140157,-27.199985074235798,1],"mesh":0},{"name":"Group","matrix":[1,0,0,0,0,0.994459862571109,-0.10511699070583796,0,0,0.10511699070583796,0.994459862571109,0,-12.355007042318167,38.66297914767898,45.934027901209575,1],"children":[6,7]},{"name":"Ellipse","matrix":[1,0,0,0,0,1,0,0,0,0,1,0,0,0,-0.9333133425425331,1],"mesh":1},{"name":"Ellipse 2","matrix":[1,0,0,0,0,1,0,0,0,0,1,0,-0.1736071004680877,-3.2985349088936076,-0.06668665745746694,1],"mesh":2},{"name":"Group 2","matrix":[0.9963943933144948,-0.008918365465388446,-0.08437224501496841,0,0.006912136299033315,0.9996870865651246,-0.024040618268187028,0,0.08456024682570219,0.02337074479683667,0.9961442530800536,0,18.714120058839494,37.63123232894651,47.773511945815095,1],"children":[9,10]},{"name":"Ellipse","matrix":[1,0,0,0,0,1,0,0,0,0,1,0,0,0,-0.9333133425425331,1],"mesh":3},{"name":"Ellipse 2","matrix":[1,0,0,0,0,1,0,0,0,0,1,0,-0.1736071004680877,-3.2985349088936076,-0.06668665745746694,1],"mesh":4}],"cameras":[{"type":"perspective","perspective":{"aspectRatio":1.868974042027194,"yfov":0.7853981633974483,"znear":70,"zfar":100000}}],"meshes":[{"primitives":[{"attributes":{"POSITION":1,"NORMAL":2},"indices":0,"material":0}]},{"primitives":[{"attributes":{"POSITION":4,"NORMAL":5,"TEXCOORD_0":6},"indices":3,"material":1}]},{"primitives":[{"attributes":{"POSITION":8,"NORMAL":9,"TEXCOORD_0":10},"indices":7,"material":2}]},{"primitives":[{"attributes":{"POSITION":12,"NORMAL":13,"TEXCOORD_0":14},"indices":11,"material":3}]},{"primitives":[{"attributes":{"POSITION":16,"NORMAL":17,"TEXCOORD_0":18},"indices":15,"material":4}]}],"materials":[{"pbrMetallicRoughness":{"baseColorFactor":[0.7233009708737864,0.7233009708737864,0.7233009708737864,1],"metallicFactor":0,"roughnessFactor":0.995},"doubleSided":false},{"pbrMetallicRoughness":{"baseColorFactor":[0.9757281553398058,0.9757281553398058,0.9757281553398058,1],"metallicFactor":0,"roughnessFactor":0.995},"doubleSided":false},{"pbrMetallicRoughness":{"baseColorFactor":[0.15048543689320393,0.15048543689320393,0.15048543689320393,1],"metallicFactor":0,"roughnessFactor":0.995},"doubleSided":false},{"pbrMetallicRoughness":{"baseColorFactor":[0.9764705882352941,0.9764705882352941,0.9764705882352941,1],"metallicFactor":0,"roughnessFactor":0.995},"doubleSided":false},{"pbrMetallicRoughness":{"baseColorFactor":[0.1213592233009708,0.1213592233009708,0.1213592233009708,1],"metallicFactor":0,"roughnessFactor":0.995},"doubleSided":false}],"buffers":[{"uri":"data:application/octet-stream;base64,","byteLength":54960},{"uri":"data:application/octet-stream;base64,","byteLength":27600},{"uri":"data:application/octet-stream;base64,","byteLength":27600},{"uri":"data:application/octet-stream;base64,","byteLength":27600},{"uri":"data:application/octet-stream;base64,","byteLength":27600}],"bufferViews":[{"buffer":0,"byteOffset":0,"byteLength":10992,"target":34963},{"buffer":0,"byteOffset":10992,"byteLength":21984,"target":34962},{"buffer":0,"byteOffset":32976,"byteLength":21984,"target":34962},{"buffer":1,"byteOffset":0,"byteLength":3024,"target":34963},{"buffer":1,"byteOffset":3024,"byteLength":8192,"target":34962},{"buffer":1,"byteOffset":11216,"byteLength":8192,"target":34962},{"buffer":1,"byteOffset":19408,"byteLength":8192,"target":34962},{"buffer":2,"byteOffset":0,"byteLength":3024,"target":34963},{"buffer":2,"byteOffset":3024,"byteLength":8192,"target":34962},{"buffer":2,"byteOffset":11216,"byteLength":8192,"target":34962},{"buffer":2,"byteOffset":19408,"byteLength":8192,"target":34962},{"buffer":3,"byteOffset":0,"byteLength":3024,"target":34963},{"buffer":3,"byteOffset":3024,"byteLength":8192,"target":34962},{"buffer":3,"byteOffset":11216,"byteLength":8192,"target":34962},{"buffer":3,"byteOffset":19408,"byteLength":8192,"target":34962},{"buffer":4,"byteOffset":0,"byteLength":3024,"target":34963},{"buffer":4,"byteOffset":3024,"byteLength":8192,"target":34962},{"buffer":4,"byteOffset":11216,"byteLength":8192,"target":34962},{"buffer":4,"byteOffset":19408,"byteLength":8192,"target":34962}],"accessors":[{"bufferView":0,"byteOffset":0,"componentType":5125,"count":2748,"type":"SCALAR","min":[0],"max":[1831]},{"bufferView":1,"byteOffset":0,"componentType":5126,"count":1832,"type":"VEC3","min":[-46.641197204589844,-35.74742889404297,-15.37350082397461],"max":[44.761531829833984,29.32732391357422,56.16867446899414]},{"bufferView":2,"byteOffset":0,"componentType":5126,"count":1832,"type":"VEC3","min":[-0.9954535365104675,-0.9997068643569946,-0.9979571104049683],"max":[0.992116391658783,0.9984080195426941,0.998855710029602]},{"bufferView":3,"byteOffset":0,"componentType":5125,"count":756,"type":"SCALAR","min":[0],"max":[255]},{"bufferView":4,"byteOffset":0,"componentType":5126,"count":256,"type":"VEC3","min":[-10,-10,0],"max":[10,10,1]},{"bufferView":5,"byteOffset":0,"componentType":5126,"count":256,"type":"VEC3","min":[-0.9987275004386902,-0.9987275004386902,-1],"max":[0.9987275004386902,0.9987275004386902,1]},{"bufferView":6,"byteOffset":0,"componentType":5126,"count":256,"type":"VEC2","min":[0,0],"max":[1,1]},{"bufferView":7,"byteOffset":0,"componentType":5125,"count":756,"type":"SCALAR","min":[0],"max":[255]},{"bufferView":8,"byteOffset":0,"componentType":5126,"count":256,"type":"VEC3","min":[-5.8681511878967285,-5.8681511878967285,0],"max":[5.8681511878967285,5.8681511878967285,1]},{"bufferView":9,"byteOffset":0,"componentType":5126,"count":256,"type":"VEC3","min":[-0.9987275004386902,-0.9987275004386902,-1],"max":[0.9987275004386902,0.9987275004386902,1]},{"bufferView":10,"byteOffset":0,"componentType":5126,"count":256,"type":"VEC2","min":[0,0],"max":[1,1]},{"bufferView":11,"byteOffset":0,"componentType":5125,"count":756,"type":"SCALAR","min":[0],"max":[255]},{"bufferView":12,"byteOffset":0,"componentType":5126,"count":256,"type":"VEC3","min":[-10,-10,0],"max":[10,10,1]},{"bufferView":13,"byteOffset":0,"componentType":5126,"count":256,"type":"VEC3","min":[-0.9987275004386902,-0.9987275004386902,-1],"max":[0.9987275004386902,0.9987275004386902,1]},{"bufferView":14,"byteOffset":0,"componentType":5126,"count":256,"type":"VEC2","min":[0,0],"max":[1,1]},{"bufferView":15,"byteOffset":0,"componentType":5125,"count":756,"type":"SCALAR","min":[0],"max":[255]},{"bufferView":16,"byteOffset":0,"componentType":5126,"count":256,"type":"VEC3","min":[-5.8681511878967285,-5.8681511878967285,0],"max":[5.8681511878967285,5.8681511878967285,1]},{"bufferView":17,"byteOffset":0,"componentType":5126,"count":256,"type":"VEC3","min":[-0.9987275004386902,-0.9987275004386902,-1],"max":[0.9987275004386902,0.9987275004386902,1]},{"bufferView":18,"byteOffset":0,"componentType":5126,"count":256,"type":"VEC2","min":[0,0],"max":[1,1]}],"extensions":{"KHR_lights_punctual":{"lights":[]}},"extensionsUsed":["KHR_lights_punctual"]}