{"asset":{"generator":"Khronos glTF Spline I/O v0.0.1","version":"2.0"},"scenes":[{"nodes":[0]}],"nodes":[{"name":"","children":[1,2],"matrix":[0.01,0,0,0,0,0.01,0,0,0,0,0.01,0,0,0,0,1]},{"name":"","camera":0,"translation":[-0.6984395591934662,89.9240932461591,85.25759033430856],"rotation":[0,0,0,1]},{"name":"Group","matrix":[1,0,0,0,0,1,0,0,0,0,1,0,0,0,0,1],"children":[3,4]},{"name":"Sphere","matrix":[1,0,0,0,0,1,0,0,0,0,1,0,-0.9275955468102879,106.92888823645801,0,1],"mesh":0},{"name":"Cube","matrix":[1,0,0,0,0,1,0,0,0,0,1,0,-0.9275955468102879,42.478281641397786,0,1],"mesh":1}],"cameras":[{"type":"perspective","perspective":{"aspectRatio":1.868974042027194,"yfov":0.7853981633974483,"znear":70,"zfar":100000}}],"meshes":[{"primitives":[{"attributes":{"POSITION":1,"NORMAL":2,"TEXCOORD_0":3},"indices":0,"material":0}]},{"primitives":[{"attributes":{"POSITION":5,"NORMAL":6,"TEXCOORD_0":7},"indices":4,"material":1}]}],"materials":[{"pbrMetallicRoughness":{"baseColorFactor":[0.9787374848300971,1,0.5747496966019418,1],"metallicFactor":0,"roughnessFactor":0.995},"doubleSided":false},{"pbrMetallicRoughness":{"baseColorFactor":[0.46078580097087374,0.2178736746125783,0.07724033829988097,1],"metallicFactor":0,"roughnessFactor":0.995},"doubleSided":false}],"buffers":[{"uri":"data:application/octet-stream;base64,","byteLength":183584},{"uri":"data:application/octet-stream;base64,","byteLength":840}],"bufferViews":[{"buffer":0,"byteOffset":0,"byteLength":48384,"target":34963},{"buffer":0,"byteOffset":48384,"byteLength":50700,"target":34962},{"buffer":0,"byteOffset":99084,"byteLength":50700,"target":34962},{"buffer":0,"byteOffset":149784,"byteLength":33800,"target":34962},{"buffer":1,"byteOffset":0,"byteLength":72,"target":34963},{"buffer":1,"byteOffset":72,"byteLength":288,"target":34962},{"buffer":1,"byteOffset":360,"byteLength":288,"target":34962},{"buffer":1,"byteOffset":648,"byteLength":192,"target":34962}],"accessors":[{"bufferView":0,"byteOffset":0,"componentType":5123,"count":24192,"type":"SCALAR","min":[0],"max":[4224]},{"bufferView":1,"byteOffset":0,"componentType":5126,"count":4225,"type":"VEC3","min":[-25,-35,-25],"max":[25,35,25]},{"bufferView":2,"byteOffset":0,"componentType":5126,"count":4225,"type":"VEC3","min":[-1,-1,-1],"max":[1,1,1]},{"bufferView":3,"byteOffset":0,"componentType":5126,"count":4225,"type":"VEC2","min":[-0.0078125,0],"max":[1.0078125,1]},{"bufferView":4,"byteOffset":0,"componentType":5123,"count":36,"type":"SCALAR","min":[0],"max":[23]},{"bufferView":5,"byteOffset":0,"componentType":5126,"count":24,"type":"VEC3","min":[-7.5,-42.46892166137695,-7.5],"max":[7.5,42.46892166137695,7.5]},{"bufferView":6,"byteOffset":0,"componentType":5126,"count":24,"type":"VEC3","min":[-1,-1,-1],"max":[1,1,1]},{"bufferView":7,"byteOffset":0,"componentType":5126,"count":24,"type":"VEC2","min":[0,0],"max":[1,1]}],"extensions":{"KHR_lights_punctual":{"lights":[]}},"extensionsUsed":["KHR_lights_punctual"]}