{"asset":{"generator":"Khronos glTF Spline I/O v0.0.1","version":"2.0"},"scenes":[{"nodes":[0]}],"nodes":[{"name":"","children":[1,2,8],"matrix":[0.01,0,0,0,0,0.01,0,0,0,0,0.01,0,0,0,0,1]},{"name":"","camera":0,"translation":[0,6.123233995736766e-14,1000],"rotation":[-3.0616169978683824e-17,0,0,1]},{"name":"Group","matrix":[1,0,0,0,0,1,0,0,0,0,1,0,0,0,0,1],"children":[3,4,5,6,7]},{"name":"Cylinder 2","matrix":[-1,-1.2246467991473532e-16,0,0,-1.410229484446279e-16,1.151539762671274,0,0,0,0,1,0,0.4948101294252822,9.832334957904294,1.414223666929615,1],"mesh":0},{"name":"Cylinder 3","matrix":[-1,-1.2246467991473532e-16,0,0,-1.410229484446279e-16,1.151539762671274,0,0,0,0,1,0,0.7791556837809708,107.02139128692033,2.2740426961641447,1],"mesh":1},{"name":"Cylinder 5","matrix":[-0.8544875290048464,-1.0464454173071163e-16,0,0,-1.205023507494279e-16,0.9839763663558041,0,0,0,0,0.8544875290048464,0,0.40249399077553955,179.4001540404086,0,1],"mesh":2},{"name":"Cylinder 6","matrix":[-0.8544875290048464,-1.0464454173071163e-16,0,0,-1.205023507494279e-16,0.9839763663558041,0,0,0,0,0.8544875290048464,0,0.40249399077552894,276.48728985560297,0,1],"mesh":3},{"name":"Cylinder 4","matrix":[-0.8544875290048464,-1.0464454173071163e-16,0,0,-1.205023507494279e-16,0.9839763663558041,0,0,0,0,0.8544875290048464,0,-1.4210854715202007e-14,228.41915221816421,0,1],"mesh":4},{"name":"Camera 2","camera":1,"translation":[-3662.8899934344918,2379.988701567462,3678.248190028625],"rotation":[-0.18249294074398592,-0.3776405444757,-0.07618575969118928,0.9045881249314437]}],"cameras":[{"type":"orthographic","orthographic":{"xmag":1512,"ymag":809,"zfar":100000,"znear":-100000}},{"type":"orthographic","orthographic":{"xmag":1512,"ymag":809,"zfar":100000,"znear":-100000}}],"meshes":[{"primitives":[{"attributes":{"POSITION":1,"NORMAL":2,"TEXCOORD_0":3},"indices":0}]},{"primitives":[{"attributes":{"POSITION":5,"NORMAL":6,"TEXCOORD_0":7},"indices":4}]},{"primitives":[{"attributes":{"POSITION":9,"NORMAL":10,"TEXCOORD_0":11},"indices":8}]},{"primitives":[{"attributes":{"POSITION":13,"NORMAL":14,"TEXCOORD_0":15},"indices":12}]},{"primitives":[{"attributes":{"POSITION":17,"NORMAL":18,"TEXCOORD_0":19},"indices":16}]}],"buffers":[{"uri":"data:application/octet-stream;base64,","byteLength":67200},{"uri":"data:application/octet-stream;base64,","byteLength":13952},{"uri":"data:application/octet-stream;base64,","byteLength":13952},{"uri":"data:application/octet-stream;base64,","byteLength":13952},{"uri":"data:application/octet-stream;base64,","byteLength":113920}],"bufferViews":[{"buffer":0,"byteOffset":0,"byteLength":17280,"target":34963},{"buffer":0,"byteOffset":17280,"byteLength":18720,"target":34962},{"buffer":0,"byteOffset":36000,"byteLength":18720,"target":34962},{"buffer":0,"byteOffset":54720,"byteLength":12480,"target":34962},{"buffer":1,"byteOffset":0,"byteLength":1536,"target":34963},{"buffer":1,"byteOffset":1536,"byteLength":4656,"target":34962},{"buffer":1,"byteOffset":6192,"byteLength":4656,"target":34962},{"buffer":1,"byteOffset":10848,"byteLength":3104,"target":34962},{"buffer":2,"byteOffset":0,"byteLength":1536,"target":34963},{"buffer":2,"byteOffset":1536,"byteLength":4656,"target":34962},{"buffer":2,"byteOffset":6192,"byteLength":4656,"target":34962},{"buffer":2,"byteOffset":10848,"byteLength":3104,"target":34962},{"buffer":3,"byteOffset":0,"byteLength":1536,"target":34963},{"buffer":3,"byteOffset":1536,"byteLength":4656,"target":34962},{"buffer":3,"byteOffset":6192,"byteLength":4656,"target":34962},{"buffer":3,"byteOffset":10848,"byteLength":3104,"target":34962},{"buffer":4,"byteOffset":0,"byteLength":30720,"target":34963},{"buffer":4,"byteOffset":30720,"byteLength":31200,"target":34962},{"buffer":4,"byteOffset":61920,"byteLength":31200,"target":34962},{"buffer":4,"byteOffset":93120,"byteLength":20800,"target":34962}],"accessors":[{"bufferView":0,"byteOffset":0,"componentType":5123,"count":8640,"type":"SCALAR","min":[0],"max":[1558]},{"bufferView":1,"byteOffset":0,"componentType":5126,"count":1560,"type":"VEC3","min":[-48,-8.5,-48],"max":[48,8.5,48]},{"bufferView":2,"byteOffset":0,"componentType":5126,"count":1560,"type":"VEC3","min":[-1,-1,-1],"max":[1,1,1]},{"bufferView":3,"byteOffset":0,"componentType":5126,"count":1560,"type":"VEC2","min":[0,0],"max":[1,1]},{"bufferView":4,"byteOffset":0,"componentType":5123,"count":768,"type":"SCALAR","min":[0],"max":[387]},{"bufferView":5,"byteOffset":0,"componentType":5126,"count":388,"type":"VEC3","min":[-7.5,-74.5,-7.5],"max":[7.5,74.5,7.5]},{"bufferView":6,"byteOffset":0,"componentType":5126,"count":388,"type":"VEC3","min":[-1,-1,-1],"max":[1,1,1]},{"bufferView":7,"byteOffset":0,"componentType":5126,"count":388,"type":"VEC2","min":[0,0],"max":[1,1]},{"bufferView":8,"byteOffset":0,"componentType":5123,"count":768,"type":"SCALAR","min":[0],"max":[387]},{"bufferView":9,"byteOffset":0,"componentType":5126,"count":388,"type":"VEC3","min":[-55,-6.5,-55],"max":[55,6.5,55]},{"bufferView":10,"byteOffset":0,"componentType":5126,"count":388,"type":"VEC3","min":[-1,-1,-1],"max":[1,1,1]},{"bufferView":11,"byteOffset":0,"componentType":5126,"count":388,"type":"VEC2","min":[0,0],"max":[1,1]},{"bufferView":12,"byteOffset":0,"componentType":5123,"count":768,"type":"SCALAR","min":[0],"max":[387]},{"bufferView":13,"byteOffset":0,"componentType":5126,"count":388,"type":"VEC3","min":[-39,-4.5,-39],"max":[39,4.5,39]},{"bufferView":14,"byteOffset":0,"componentType":5126,"count":388,"type":"VEC3","min":[-1,-1,-1],"max":[1,1,1]},{"bufferView":15,"byteOffset":0,"componentType":5126,"count":388,"type":"VEC2","min":[0,0],"max":[1,1]},{"bufferView":16,"byteOffset":0,"componentType":5123,"count":15360,"type":"SCALAR","min":[0],"max":[2599]},{"bufferView":17,"byteOffset":0,"componentType":5126,"count":2600,"type":"VEC3","min":[-61.17909622192383,-60.5,-61.17909622192383],"max":[61.17909622192383,60.5,61.17909622192383]},{"bufferView":18,"byteOffset":0,"componentType":5126,"count":2600,"type":"VEC3","min":[-0.997664213180542,-1,-0.997664213180542],"max":[0.997664213180542,1,0.997664213180542]},{"bufferView":19,"byteOffset":0,"componentType":5126,"count":2600,"type":"VEC2","min":[0,0],"max":[1,1]}],"extensions":{"KHR_lights_punctual":{"lights":[]}},"extensionsUsed":["KHR_lights_punctual"]}