{"asset":{"generator":"Khronos glTF Spline I/O v0.0.1","version":"2.0"},"scenes":[{"nodes":[0]}],"nodes":[{"name":"","children":[1,2],"matrix":[0.01,0,0,0,0,0.01,0,0,0,0,0.01,0,0,0,0,1]},{"name":"","camera":0,"translation":[-162.40934060426198,350.9710409857262,1000],"rotation":[-2.8421709430404e-17,0,0,1]},{"name":"house_tree","matrix":[1,0,0,0,0,1,0,0,0,0,1,0,0,0,0,1],"children":[3]},{"name":"tree","matrix":[1,0,0,0,0,1,0,0,0,0,1,0,-5.167968749999986,314.23046875000006,-2.842170943040401e-14,1],"children":[4,5]},{"name":"trunk","matrix":[1.1985871784437045,0,0,0,0,0.998546975478457,0,0,0,0,1.1985871784437045,0,4.064076341000828,-156.50912983525933,3.4118964320017255,1],"mesh":0},{"name":"green part","matrix":[1,0,0,0,0,1,0,0,0,0,1,0,9.777382591000787,52.144447522168065,3.734443718219296,1],"children":[6,7]},{"name":"Cube","matrix":[2.2840866713326418,0,0,0,0,2.5358456127529313e-15,-2.2840866713326418,0,0,1.998279823198637,2.2185362693590137e-15,0,0,-47.19227299596622,0,1],"mesh":1},{"name":"Subdiv","matrix":[1.4978209433962768,0,0,0,0,4.489871304935662e-15,-1.4978209433962764,0,0,1.8609757042248047,5.578464802765662e-15,0,0,56.69478820327123,1.7053025658242404e-13,1],"mesh":2}],"cameras":[{"type":"orthographic","orthographic":{"xmag":1512,"ymag":809,"zfar":100000,"znear":-100000}}],"meshes":[{"primitives":[{"attributes":{"POSITION":1,"NORMAL":2,"TEXCOORD_0":3},"indices":0,"material":0}]},{"primitives":[{"attributes":{"POSITION":5,"NORMAL":6},"indices":4,"material":1}]},{"primitives":[{"attributes":{"POSITION":8,"NORMAL":9},"indices":7,"material":1}]}],"materials":[{"pbrMetallicRoughness":{"baseColorFactor":[0.4588235294117647,0.28627450980392155,0.13725490196078433,1],"metallicFactor":0,"roughnessFactor":0.97},"doubleSided":false},{"pbrMetallicRoughness":{"baseColorFactor":[0.34509803921568627,0.5803921568627451,0.29411764705882354,1],"metallicFactor":0,"roughnessFactor":0.97},"doubleSided":false}],"buffers":[{"uri":"data:application/octet-stream;base64,","byteLength":67200},{"uri":"data:application/octet-stream;base64,","byteLength":184320},{"uri":"data:application/octet-stream;base64,","byteLength":184320}],"bufferViews":[{"buffer":0,"byteOffset":0,"byteLength":17280,"target":34963},{"buffer":0,"byteOffset":17280,"byteLength":18720,"target":34962},{"buffer":0,"byteOffset":36000,"byteLength":18720,"target":34962},{"buffer":0,"byteOffset":54720,"byteLength":12480,"target":34962},{"buffer":1,"byteOffset":0,"byteLength":36864,"target":34963},{"buffer":1,"byteOffset":36864,"byteLength":73728,"target":34962},{"buffer":1,"byteOffset":110592,"byteLength":73728,"target":34962},{"buffer":2,"byteOffset":0,"byteLength":36864,"target":34963},{"buffer":2,"byteOffset":36864,"byteLength":73728,"target":34962},{"buffer":2,"byteOffset":110592,"byteLength":73728,"target":34962}],"accessors":[{"bufferView":0,"byteOffset":0,"componentType":5123,"count":8640,"type":"SCALAR","min":[0],"max":[1558]},{"bufferView":1,"byteOffset":0,"componentType":5126,"count":1560,"type":"VEC3","min":[-31.186826705932617,-161,-31.186826705932617],"max":[31.186826705932617,161,31.186826705932617]},{"bufferView":2,"byteOffset":0,"componentType":5126,"count":1560,"type":"VEC3","min":[-0.9973474740982056,-1,-0.9973474740982056],"max":[0.9973474740982056,1,0.9973474740982056]},{"bufferView":3,"byteOffset":0,"componentType":5126,"count":1560,"type":"VEC2","min":[0,0],"max":[1,1]},{"bufferView":4,"byteOffset":0,"componentType":5125,"count":9216,"type":"SCALAR","min":[0],"max":[6143]},{"bufferView":5,"byteOffset":0,"componentType":5126,"count":6144,"type":"VEC3","min":[-68.61639404296875,-68.61639404296875,-68.61639404296875],"max":[68.61639404296875,68.61639404296875,68.61639404296875]},{"bufferView":6,"byteOffset":0,"componentType":5126,"count":6144,"type":"VEC3","min":[-1,-1,-1],"max":[1,1,1]},{"bufferView":7,"byteOffset":0,"componentType":5125,"count":9216,"type":"SCALAR","min":[0],"max":[6143]},{"bufferView":8,"byteOffset":0,"componentType":5126,"count":6144,"type":"VEC3","min":[-68.61639404296875,-68.61639404296875,-68.61639404296875],"max":[68.61639404296875,68.61639404296875,68.61639404296875]},{"bufferView":9,"byteOffset":0,"componentType":5126,"count":6144,"type":"VEC3","min":[-1,-1,-1],"max":[1,1,1]}],"extensions":{"KHR_lights_punctual":{"lights":[]}},"extensionsUsed":["KHR_lights_punctual"]}