{"asset":{"generator":"Khronos glTF Spline I/O v0.0.1","version":"2.0"},"scenes":[{"nodes":[0]}],"nodes":[{"name":"","children":[1,2],"matrix":[0.01,0,0,0,0,0.01,0,0,0,0,0.01,0,0,0,0,1]},{"name":"","camera":0,"translation":[-65.37721104176197,268.64074923572616,1000],"rotation":[-2.842170943040401e-17,0,0,1]},{"name":"tree","matrix":[1,0,0,0,0,1,0,0,0,0,1,0,0,0,0,1],"children":[3,4]},{"name":"trunk","matrix":[1,0,0,0,0,1,0,0,0,0,1,0,-2.2737367544323206e-13,159.09295554181654,0,1],"mesh":0},{"name":"green part","matrix":[1,0,0,0,0,1,0,0,0,0,1,0,0,312.2827084270083,0,1],"children":[5,6,7]},{"name":"Cone","matrix":[1,0,0,0,0,1,0,0,0,0,1,0,0,-85.8444534173936,0,1],"mesh":1},{"name":"Cone 2","matrix":[1,0,0,0,0,1,0,0,0,0,1,0,0,-27.36025489339943,0,1],"mesh":2},{"name":"Cone 3","matrix":[1,0,0,0,0,1,0,0,0,0,1,0,0,19.539737958803585,0,1],"mesh":3}],"cameras":[{"type":"orthographic","orthographic":{"xmag":1512,"ymag":866,"zfar":100000,"znear":-100000}}],"meshes":[{"primitives":[{"attributes":{"POSITION":1,"NORMAL":2,"TEXCOORD_0":3},"indices":0,"material":0}]},{"primitives":[{"attributes":{"POSITION":5,"NORMAL":6,"TEXCOORD_0":7},"indices":4,"material":1}]},{"primitives":[{"attributes":{"POSITION":9,"NORMAL":10},"indices":8,"material":1}]},{"primitives":[{"attributes":{"POSITION":12,"NORMAL":13,"TEXCOORD_0":14},"indices":11,"material":1}]}],"materials":[{"pbrMetallicRoughness":{"baseColorFactor":[0.9221017020089286,0.574787018899204,0.2708866711781949,1],"metallicFactor":0,"roughnessFactor":0.97},"doubleSided":false},{"pbrMetallicRoughness":{"baseColorFactor":[0.38191929019227316,0.7366420200892857,0.21499094671132615,1],"metallicFactor":0,"roughnessFactor":0.9359999999999999},"doubleSided":false}],"buffers":[{"uri":"data:application/octet-stream;base64,","byteLength":67200},{"uri":"data:application/octet-stream;base64,","byteLength":30720},{"uri":"data:application/octet-stream;base64,","byteLength":142080},{"uri":"data:application/octet-stream;base64,","byteLength":46780}],"bufferViews":[{"buffer":0,"byteOffset":0,"byteLength":17280,"target":34963},{"buffer":0,"byteOffset":17280,"byteLength":18720,"target":34962},{"buffer":0,"byteOffset":36000,"byteLength":18720,"target":34962},{"buffer":0,"byteOffset":54720,"byteLength":12480,"target":34962},{"buffer":1,"byteOffset":0,"byteLength":7488,"target":34963},{"buffer":1,"byteOffset":7488,"byteLength":8712,"target":34962},{"buffer":1,"byteOffset":16200,"byteLength":8712,"target":34962},{"buffer":1,"byteOffset":24912,"byteLength":5808,"target":34962},{"buffer":2,"byteOffset":0,"byteLength":28416,"target":34963},{"buffer":2,"byteOffset":28416,"byteLength":56832,"target":34962},{"buffer":2,"byteOffset":85248,"byteLength":56832,"target":34962},{"buffer":3,"byteOffset":0,"byteLength":12060,"target":34963},{"buffer":3,"byteOffset":12060,"byteLength":13020,"target":34962},{"buffer":3,"byteOffset":25080,"byteLength":13020,"target":34962},{"buffer":3,"byteOffset":38100,"byteLength":8680,"target":34962}],"accessors":[{"bufferView":0,"byteOffset":0,"componentType":5123,"count":8640,"type":"SCALAR","min":[0],"max":[1558]},{"bufferView":1,"byteOffset":0,"componentType":5126,"count":1560,"type":"VEC3","min":[-31.186826705932617,-161,-31.186826705932617],"max":[31.186826705932617,161,31.186826705932617]},{"bufferView":2,"byteOffset":0,"componentType":5126,"count":1560,"type":"VEC3","min":[-0.9973474740982056,-1,-0.9973474740982056],"max":[0.9973474740982056,1,0.9973474740982056]},{"bufferView":3,"byteOffset":0,"componentType":5126,"count":1560,"type":"VEC2","min":[0,0],"max":[1,1]},{"bufferView":4,"byteOffset":0,"componentType":5123,"count":3744,"type":"SCALAR","min":[0],"max":[724]},{"bufferView":5,"byteOffset":0,"componentType":5126,"count":726,"type":"VEC3","min":[-98.88870239257812,-110,-98.88870239257812],"max":[98.88870239257812,110,98.88870239257812]},{"bufferView":6,"byteOffset":0,"componentType":5126,"count":726,"type":"VEC3","min":[-0.9973564743995667,-1,-0.9973564743995667],"max":[0.9973564743995667,1,0.9973564743995667]},{"bufferView":7,"byteOffset":0,"componentType":5126,"count":726,"type":"VEC2","min":[0,0],"max":[1,1]},{"bufferView":8,"byteOffset":0,"componentType":5125,"count":7104,"type":"SCALAR","min":[0],"max":[4735]},{"bufferView":9,"byteOffset":0,"componentType":5126,"count":4736,"type":"VEC3","min":[-88.27669525146484,-100.00000762939453,-88.27669525146484],"max":[88.27669525146484,97.43154907226562,88.27668762207031]},{"bufferView":10,"byteOffset":0,"componentType":5126,"count":4736,"type":"VEC3","min":[-0.9999409914016724,-1,-0.9999409914016724],"max":[0.9999409914016724,1,0.9999409914016724]},{"bufferView":11,"byteOffset":0,"componentType":5123,"count":6030,"type":"SCALAR","min":[0],"max":[1083]},{"bufferView":12,"byteOffset":0,"componentType":5126,"count":1085,"type":"VEC3","min":[-73.45376586914062,-75,-73.8583755493164],"max":[73.45376586914062,75,73.8583755493164]},{"bufferView":13,"byteOffset":0,"componentType":5126,"count":1085,"type":"VEC3","min":[-0.9939078688621521,-1,-0.9993825554847717],"max":[0.9939078688621521,1,0.9993825554847717]},{"bufferView":14,"byteOffset":0,"componentType":5126,"count":1085,"type":"VEC2","min":[0,0],"max":[1,1]}],"extensions":{"KHR_lights_punctual":{"lights":[]}},"extensionsUsed":["KHR_lights_punctual"]}